<?xml version="1.0" encoding="iso-8859-1"?>
<!-- Generator: Adobe Illustrator 16.0.0, SVG Export Plug-In . SVG Version: 6.00 Build 0)  -->
<!DOCTYPE svg PUBLIC "-//W3C//DTD SVG 1.1//EN" "http://www.w3.org/Graphics/SVG/1.1/DTD/svg11.dtd">
<svg version="1.1" id="Capa_1" xmlns="http://www.w3.org/2000/svg" xmlns:xlink="http://www.w3.org/1999/xlink" x="0px" y="0px"
	 width="761.339px" height="761.34px" viewBox="0 0 761.339 761.34" style="enable-background:new 0 0 761.339 761.34;"
	 xml:space="preserve">
<g>
	<g>
		<path d="M236.385,345.886c23.194,0,42.064-18.875,42.064-42.069c0-23.215-18.87-42.101-42.065-42.101
			c-23.223,0-42.117,18.886-42.117,42.101C194.267,327.012,213.162,345.886,236.385,345.886z M236.385,277.893
			c14.271,0,25.884,11.629,25.884,25.921c0,14.275-11.613,25.888-25.885,25.888c-14.303,0-25.937-11.613-25.937-25.888
			C210.448,289.522,222.081,277.893,236.385,277.893z"/>
		<path d="M237.092,469.468c23.207,0,42.085-18.887,42.085-42.102c0-23.207-18.878-42.085-42.085-42.085
			c-23.203,0-42.081,18.878-42.081,42.085C195.012,450.581,213.89,469.468,237.092,469.468z M237.092,401.457
			c14.283,0,25.905,11.622,25.905,25.905c0,14.291-11.622,25.921-25.905,25.921s-25.9-11.63-25.9-25.921
			C211.192,413.079,222.809,401.457,237.092,401.457z"/>
		<path d="M239.22,508.818c-23.207,0-42.085,18.898-42.085,42.125c0,23.207,18.878,42.085,42.085,42.085
			c23.203,0,42.081-18.878,42.081-42.085C281.301,527.717,262.423,508.818,239.22,508.818z M239.22,576.848
			c-14.283,0-25.905-11.621-25.905-25.904c0-14.308,11.622-25.945,25.905-25.945s25.9,11.638,25.9,25.945
			C265.121,565.227,253.503,576.848,239.22,576.848z"/>
		<path d="M616.763,130.369c-0.433,0-0.886,0.016-1.347,0.044c-3.771,0.012-49.528,0.024-114.698,0.024
			c-4.466,0-8.09,3.624-8.09,8.09l0.008,5.857c-0.158,2.876-1.242,7.702-7.006,7.702c-0.004,0-0.004,0-0.009,0
			c-6.366-0.162-41.085-0.194-69.094-0.194c-55.413,0-129.466,0.133-139.911,0.23c-3.309,0-4.332-1.096-4.668-1.452
			c-1.618-1.735-1.938-5.335-1.84-6.735c0.02-0.238,0.032-0.473,0.032-0.716v-4.692c0-4.466-3.625-8.09-8.09-8.09
			c-63.116,0-107.458-0.012-111.175-0.024c-9.041-0.546-14.971,4.817-15.735,13.858c-0.198,2.427-0.247,530.047-0.036,532.729
			c0.797,8.511,6.326,13.802,14.425,13.802c0.453,0,0.926-0.016,1.412-0.053c5.149-0.061,102.122-0.104,232.2-0.104
			c130.049,0,227.014,0.048,232.208,0.104c0.477,0.037,0.942,0.053,1.399,0.053c8.175,0,13.688-5.323,14.376-13.704
			c0.255-2.432,0.299-530.427,0.057-532.854C630.452,135.688,624.93,130.369,616.763,130.369z M615,674.585
			c-14.731-0.101-149.813-0.117-231.859-0.117c-82.144,0-217.443,0.017-231.904,0.117c-0.105-30.423-0.073-497.75,0.044-527.992
			c4.008,0.012,21.734,0.028,102.729,0.028c0.304,4,1.553,10.109,5.979,14.943c2.815,3.078,7.989,6.743,16.888,6.743
			c10.311-0.093,84.279-0.231,139.656-0.231c40.03,0,63.787,0.065,68.689,0.186l0.712,0.012c15.189,0,21.723-12.208,22.746-21.657
			c84.355,0,102.389-0.016,106.365-0.028C615.169,176.66,615.133,644.676,615,674.585z"/>
		<path d="M686.578,135.073l-0.009-30.524c0-23.211-19.743-36.794-38.853-38.193c-0.595-0.138-1.214-0.21-1.832-0.21
			c-0.009,0-0.017,0-0.021,0l-137.056,0.356v-3.249c0-4.465-3.616-8.082-8.073-8.09c-15.004-0.028-34.282-0.033-56.32-0.033
			C440.2,24.08,413.429,0,381.348,0c-32.086,0-58.856,24.072-63.067,55.106h-56.235c-4.466,0-8.09,3.625-8.09,8.09v3.96
			l-141.574,0.368c-0.421,0-0.833,0.036-1.246,0.097c-23.288,3.686-35.847,25.925-36.341,37.296
			c-0.162,3.317-0.166,195.507-0.021,587.543l0.012,30.509c0,24.02,21.415,38.371,42.118,38.371
			c54.026,0,511.197-0.417,527.907-0.789c26.204-0.529,41.106-25.019,41.749-38.063
			C686.699,719.194,686.707,527.049,686.578,135.073z M670.397,721.759c-0.223,4.534-8.79,22.272-25.929,22.62
			c-16.642,0.376-473.553,0.785-527.563,0.785c-12.75,0-25.937-8.301-25.937-22.191l-0.012-30.517
			c-0.182-478.29-0.093-583.122,0.004-586.795c0.162-3.766,7.407-19.263,22.135-21.957l148.972-0.388
			c4.461-0.012,8.07-3.628,8.07-8.09v-3.944h55.66c4.441,0,8.05-3.58,8.09-8.021c0.218-25.957,21.508-47.081,47.461-47.081
			c25.949,0,47.242,21.135,47.461,47.109c0.04,4.441,3.648,8.018,8.09,8.018c21.289,0,40.285,0,55.725,0.02v3.281
			c0,2.147,0.854,4.211,2.379,5.728c1.517,1.513,3.572,2.362,5.712,2.362c0.008,0,0.016,0,0.021,0l143.781-0.372
			c0.34,0.061,0.688,0.093,1.044,0.105c12.038,0.478,24.829,8.39,24.829,22.115l0.008,30.528
			C670.551,613.727,670.482,718.385,670.397,721.759z"/>
		<path d="M560.71,291.569H311.154c-4.466,0-8.09,3.625-8.09,8.09s3.625,8.09,8.09,8.09H560.71c4.466,0,8.091-3.624,8.091-8.09
			S565.18,291.569,560.71,291.569z"/>
		<path d="M560.71,422.322H311.154c-4.466,0-8.09,3.624-8.09,8.09s3.625,8.09,8.09,8.09H560.71c4.466,0,8.091-3.624,8.091-8.09
			S565.18,422.322,560.71,422.322z"/>
		<path d="M560.71,540.944H311.154c-4.466,0-8.09,3.624-8.09,8.09s3.625,8.09,8.09,8.09H560.71c4.466,0,8.091-3.624,8.091-8.09
			S565.18,540.944,560.71,540.944z"/>
		<path d="M138.931,103.731c0-4.465-3.625-8.09-8.09-8.09c-0.299,0-29.95,0.494-29.95,42.704c0,4.465,3.625,8.09,8.09,8.09
			s8.09-3.625,8.09-8.09c0-24.966,12.378-26.439,13.927-26.524C135.395,111.733,138.931,108.145,138.931,103.731z"/>
		<path d="M111.202,186.721c-4.466,0-8.09,3.624-8.09,8.09v411.684c0,4.466,3.625,8.091,8.09,8.091s8.09-3.625,8.09-8.091V194.811
			C119.292,190.345,115.671,186.721,111.202,186.721z"/>
	</g>
</g>
<g>
</g>
<g>
</g>
<g>
</g>
<g>
</g>
<g>
</g>
<g>
</g>
<g>
</g>
<g>
</g>
<g>
</g>
<g>
</g>
<g>
</g>
<g>
</g>
<g>
</g>
<g>
</g>
<g>
</g>
</svg>
