<?xml version="1.0" encoding="UTF-8" standalone="no"?>
<!-- Created with Inkscape (http://www.inkscape.org/) -->

<svg
   xmlns:dc="http://purl.org/dc/elements/1.1/"
   xmlns:cc="http://creativecommons.org/ns#"
   xmlns:rdf="http://www.w3.org/1999/02/22-rdf-syntax-ns#"
   xmlns:svg="http://www.w3.org/2000/svg"
   xmlns="http://www.w3.org/2000/svg"
   xmlns:sodipodi="http://sodipodi.sourceforge.net/DTD/sodipodi-0.dtd"
   xmlns:inkscape="http://www.inkscape.org/namespaces/inkscape"
   width="125.15453mm"
   height="11.631744mm"
   viewBox="0 0 443.46095 41.214842"
   id="svg4167"
   version="1.1"
   inkscape:version="0.91 r13725"
   sodipodi:docname="drawing.svg">
  <defs
     id="defs4169" />
  <sodipodi:namedview
     id="base"
     pagecolor="#ffffff"
     bordercolor="#666666"
     borderopacity="1.0"
     inkscape:pageopacity="0.0"
     inkscape:pageshadow="2"
     inkscape:zoom="1.979899"
     inkscape:cx="151.4566"
     inkscape:cy="-16.585136"
     inkscape:document-units="px"
     inkscape:current-layer="layer1"
     showgrid="false"
     inkscape:window-width="1680"
     inkscape:window-height="925"
     inkscape:window-x="0"
     inkscape:window-y="0"
     inkscape:window-maximized="1"
     fit-margin-top="0"
     fit-margin-left="0"
     fit-margin-right="0"
     fit-margin-bottom="0" />
  <metadata
     id="metadata4172">
    <rdf:RDF>
      <cc:Work
         rdf:about="">
        <dc:format>image/svg+xml</dc:format>
        <dc:type
           rdf:resource="http://purl.org/dc/dcmitype/StillImage" />
        <dc:title />
      </cc:Work>
    </rdf:RDF>
  </metadata>
  <g
     inkscape:label="Layer 1"
     inkscape:groupmode="layer"
     id="layer1"
     transform="translate(-156.87723,-395.93307)">
    <g
       style="font-style:normal;font-weight:normal;font-size:40px;line-height:125%;font-family:sans-serif;letter-spacing:0px;word-spacing:0px;fill:#000000;fill-opacity:1;stroke:#ffffff;stroke-width:1px;stroke-linecap:butt;stroke-linejoin:miter;stroke-opacity:1"
       id="text4715">
      <path
         d="m 197.6702,419.47995 q -0.83985,2.46094 -1.81641,3.92578 -0.97656,1.46484 -1.97266,2.24609 -0.97656,0.76172 -1.93359,0.9961 -0.9375,0.23437 -1.71875,0.23437 -1.32812,0 -2.22656,-0.37109 -0.89844,-0.39063 -1.46485,-1.01563 -0.54687,-0.64453 -0.80078,-1.44531 -0.23437,-0.82031 -0.23437,-1.67969 0,-1.01562 0.27344,-2.36328 0.29296,-1.36718 0.625,-2.79297 0.33203,-1.42578 0.60546,-2.7539 0.29297,-1.32813 0.29297,-2.28516 0,-2.05078 -1.44531,-2.05078 -0.52734,0 -0.97656,0.27344 -0.44922,0.27344 -0.83985,0.74219 -0.37109,0.46875 -0.68359,1.09375 -0.29297,0.625 -0.52734,1.32812 -0.50782,2.67578 -1.11328,5.87891 -0.60547,3.20312 -1.32813,7.20703 l -5.76172,0 5.48828,-25.52735 q -1.23047,-0.0976 -2.55859,-0.27343 -1.32813,-0.17578 -2.73438,-0.39063 l -5.64453,26.19141 -5.74218,0 5.70312,-26.5625 q -1.67969,0.0781 -3.14453,0.46875 -1.46484,0.39062 -2.55859,1.30859 -1.07422,0.91797 -1.69922,2.48047 -0.625,1.54297 -0.625,3.90625 0,0.76172 0.0781,1.25 0.0977,0.46875 0.19531,0.76172 0.0977,0.27344 0.17579,0.42969 0.0977,0.15625 0.0977,0.27343 -1.03515,0 -1.83594,-0.19531 -0.80078,-0.21484 -1.34765,-0.66406 -0.52735,-0.44922 -0.82031,-1.19141 -0.27344,-0.74218 -0.27344,-1.8164 0,-1.99219 0.80078,-3.86719 0.82031,-1.89453 2.51953,-3.33984 1.71875,-1.44532 4.375,-2.32422 2.67578,-0.87891 6.38672,-0.87891 0.66406,0 1.875,0.17578 1.21094,0.15625 2.67578,0.35156 1.48438,0.17579 3.10547,0.35157 1.62109,0.15625 3.14453,0.15625 1.46484,0 2.73438,-0.19532 1.26953,-0.19531 2.10937,-0.76171 -0.23437,0.44921 -0.44922,0.8789 -0.21484,0.42969 -0.44922,1.01563 -0.21484,0.5664 -0.44922,1.36718 -0.23437,0.80079 -0.54687,1.99219 -0.29297,1.19141 -0.66406,2.85156 -0.35157,1.66016 -0.80078,3.94532 0.64453,-0.74219 1.28906,-1.19141 0.64453,-0.46875 1.25,-0.70312 0.625,-0.25391 1.17187,-0.33204 0.56641,-0.0976 1.05469,-0.0976 0.95703,0 1.75781,0.2539 0.82032,0.25391 1.40625,0.80079 0.60547,0.54687 0.9375,1.40625 0.33203,0.85937 0.33203,2.05078 0,0.80078 -0.15625,1.73828 -0.13671,0.91797 -0.35156,1.89453 -0.19531,0.95703 -0.44922,1.91406 -0.2539,0.95703 -0.46875,1.83594 -0.19531,0.87891 -0.35156,1.64062 -0.13672,0.74219 -0.13672,1.3086 0,0.74219 0.33203,1.21094 0.33203,0.46875 1.26953,0.46875 0.64454,0 1.13282,-0.25391 0.48828,-0.25391 0.8789,-0.72266 0.39063,-0.46875 0.70313,-1.11328 0.33203,-0.66406 0.64453,-1.44531 l 1.67969,0 z"
         style="font-style:normal;font-variant:normal;font-weight:normal;font-stretch:normal;font-family:Lobster;-inkscape-font-specification:Lobster;fill:#000000;fill-opacity:1;stroke:#ffffff;stroke-opacity:1"
         id="path4772" />
      <path
         d="m 208.52957,420.96432 q -0.3125,1.73829 -0.97656,2.8711 -0.66406,1.13281 -1.58203,1.8164 -0.91797,0.6836 -2.03125,0.95704 -1.11328,0.27343 -2.32422,0.27343 -1.40625,0 -2.55859,-0.35156 -1.13282,-0.37109 -1.95313,-1.13281 -0.80078,-0.76172 -1.25,-1.95313 -0.44922,-1.21093 -0.44922,-2.91015 0,-1.15235 0.23438,-2.65625 0.23437,-1.50391 0.74218,-3.08594 0.50782,-1.58203 1.34766,-3.10547 0.83984,-1.52344 2.03125,-2.71484 1.19141,-1.21094 2.79297,-1.9336 1.60156,-0.74218 3.65234,-0.74218 1.34766,0 2.1875,0.33203 0.85938,0.3125 1.34766,0.83984 0.50781,0.52734 0.68359,1.23047 0.19532,0.68359 0.19532,1.42578 0,1.73828 -0.76172,3.24219 -0.76172,1.48437 -2.05078,2.59765 -1.26954,1.11329 -2.92969,1.79688 -1.66016,0.68359 -3.45703,0.80078 -0.0391,0.33203 -0.0781,0.64453 -0.0195,0.29297 -0.0195,0.56641 0,0.95703 0.19531,1.60156 0.19532,0.64453 0.52735,1.03516 0.33203,0.37109 0.78125,0.52734 0.44922,0.15625 0.97656,0.15625 0.58594,0 1.21094,-0.17578 0.64453,-0.17578 1.25,-0.46875 0.625,-0.29297 1.21093,-0.66406 0.58594,-0.39063 1.05469,-0.82032 z m -6.83594,-4.3164 q 1.15235,-0.0391 2.20704,-0.60547 1.05468,-0.58594 1.85546,-1.48438 0.82032,-0.91796 1.28907,-2.08984 0.48828,-1.17187 0.48828,-2.42187 0,-0.74219 -0.21485,-1.19141 -0.21484,-0.44922 -0.78125,-0.44922 -0.76171,0 -1.5039,0.76172 -0.72266,0.74219 -1.36719,1.93359 -0.625,1.19141 -1.15234,2.65625 -0.50782,1.46485 -0.82032,2.89063 z"
         style="font-style:normal;font-variant:normal;font-weight:normal;font-stretch:normal;font-family:Lobster;-inkscape-font-specification:Lobster;fill:#000000;fill-opacity:1;stroke:#ffffff;stroke-opacity:1"
         id="path4774" />
      <path
         d="m 241.43973,402.03854 q 0,0.83985 -0.23438,1.54297 -0.21484,0.6836 -0.60547,1.19141 -0.39062,0.48828 -0.95703,0.76172 -0.5664,0.27343 -1.23047,0.27343 -0.76171,0 -1.38671,-0.3125 -0.60547,-0.33203 -1.05469,-0.9375 0.74219,-0.54687 1.1914,-1.44531 0.44922,-0.91797 0.44922,-1.95312 0,-1.28907 -0.76172,-2.03125 -0.76171,-0.76172 -2.08984,-0.76172 -0.80078,0 -1.48437,0.3125 -0.66407,0.29297 -1.15235,0.83984 -0.46875,0.52735 -0.74219,1.26953 -0.2539,0.74219 -0.2539,1.6211 0,1.32812 0.64453,2.5 0.64453,1.17187 1.62109,2.30468 0.97657,1.13282 2.10938,2.30469 1.13281,1.15235 2.10937,2.48047 0.97657,1.30859 1.6211,2.85156 0.64453,1.52344 0.64453,3.37891 0,1.97266 -0.82031,3.65234 -0.82032,1.66016 -2.28516,2.89063 -1.44531,1.21094 -3.41797,1.89453 -1.95312,0.70312 -4.23828,0.70312 -1.91406,0 -3.47656,-0.50781 -1.54297,-0.48828 -2.65625,-1.40625 -1.09375,-0.9375 -1.69922,-2.22656 -0.60547,-1.28906 -0.60547,-2.87109 0,-1.32813 0.42969,-2.48047 0.42968,-1.15235 1.17187,-1.99219 0.74219,-0.85938 1.75781,-1.34766 1.01563,-0.48828 2.16797,-0.48828 1.40625,0 2.36328,0.70313 0.95704,0.70312 1.19141,1.93359 -1.05469,0 -1.89453,0.29297 -0.83984,0.29297 -1.42578,0.82031 -0.58594,0.52735 -0.91797,1.28906 -0.3125,0.74219 -0.3125,1.67969 0,1.75781 1.01562,2.79297 1.03516,1.01563 2.77344,1.01563 1.05469,0 1.95313,-0.3711 0.89843,-0.39062 1.54297,-1.05469 0.64453,-0.66406 1.01562,-1.58203 0.37109,-0.91797 0.37109,-1.99218 0,-1.09375 -0.37109,-2.08985 -0.35156,-1.01562 -0.95703,-1.95312 -0.60547,-0.95703 -1.36719,-1.875 -0.76172,-0.91797 -1.5625,-1.83594 -0.80078,-0.9375 -1.5625,-1.875 -0.76172,-0.9375 -1.36719,-1.91406 -0.60546,-0.9961 -0.97656,-2.05078 -0.35156,-1.05469 -0.35156,-2.22657 0,-1.58203 0.66406,-2.91015 0.6836,-1.34766 1.875,-2.32422 1.21094,-0.97656 2.85156,-1.52344 1.64063,-0.56641 3.57422,-0.56641 1.6211,0 2.92969,0.41016 1.30859,0.39063 2.22656,1.13281 0.9375,0.72266 1.44532,1.75782 0.50781,1.03515 0.50781,2.30468 z"
         style="font-style:normal;font-variant:normal;font-weight:normal;font-stretch:normal;font-family:Lobster;-inkscape-font-specification:Lobster;fill:#000000;fill-opacity:1;stroke:#ffffff;stroke-opacity:1"
         id="path4776" />
      <path
         d="m 264.62332,411.45261 q -1.17187,1.23046 -3.02734,2.08984 -1.85547,0.85937 -4.0625,1.23047 -0.23438,2.77344 -1.07422,5 -0.82031,2.22656 -2.08984,3.78906 -1.26954,1.5625 -2.91016,2.40234 -1.64063,0.83985 -3.47656,0.83985 -1.38672,0 -2.57813,-0.33203 -1.17187,-0.35157 -2.03125,-1.09375 -0.83984,-0.76172 -1.30859,-1.95313 -0.48828,-1.21094 -0.48828,-2.92969 0,-1.17187 0.2539,-2.65625 0.23438,-1.5039 0.76172,-3.08593 0.54688,-1.58203 1.38672,-3.08594 0.85938,-1.52344 2.07031,-2.71484 1.23047,-1.19141 2.83203,-1.91407 1.60157,-0.74218 3.65235,-0.74218 5.13672,0 5.13672,6.38671 l 0,0.0391 q 0.0976,0.0391 0.17578,0.0391 0.0976,0 0.2539,0 0.70313,0 1.50391,-0.19531 0.82031,-0.21485 1.64063,-0.54688 0.82031,-0.33203 1.60156,-0.76172 0.78125,-0.44922 1.42578,-0.89843 l 0.35156,1.09375 z m -10.41015,3.4375 q -0.625,-0.15625 -0.85938,-0.60547 -0.21484,-0.46875 -0.21484,-1.07422 0,-0.83985 0.33203,-1.36719 0.35156,-0.54687 0.91797,-0.80078 -0.0391,-0.64453 -0.13672,-1.07422 -0.0977,-0.44922 -0.27344,-0.72266 -0.17578,-0.29296 -0.44922,-0.41015 -0.2539,-0.11719 -0.66406,-0.11719 -0.72266,0 -1.38672,0.56641 -0.66406,0.54687 -1.26953,1.46484 -0.58594,0.91797 -1.09375,2.10938 -0.48828,1.17187 -0.83984,2.42187 -0.35157,1.25 -0.54688,2.48047 -0.19531,1.21094 -0.19531,2.20703 0,0.99609 0.0977,1.62109 0.11719,0.625 0.35157,0.9961 0.2539,0.35156 0.64453,0.48828 0.39062,0.13672 0.95703,0.13672 0.72266,0 1.44531,-0.64453 0.74219,-0.64453 1.36719,-1.75782 0.625,-1.11328 1.09375,-2.63671 0.48828,-1.52344 0.72266,-3.28125 z"
         style="font-style:normal;font-variant:normal;font-weight:normal;font-stretch:normal;font-family:Lobster;-inkscape-font-specification:Lobster;fill:#000000;fill-opacity:1;stroke:#ffffff;stroke-opacity:1"
         id="path4778" />
      <path
         d="m 276.43973,419.47995 q -0.83985,1.40625 -1.9336,2.73437 -1.07421,1.32813 -2.4414,2.36329 -1.34766,1.03515 -3.00781,1.67968 -1.64063,0.625 -3.61329,0.625 -1.42578,0 -2.57812,-0.35156 -1.15234,-0.37109 -1.97266,-1.13281 -0.82031,-0.76172 -1.25,-1.95313 -0.44922,-1.21093 -0.44922,-2.91015 0,-1.15235 0.23438,-2.65625 0.23437,-1.52344 0.74219,-3.10547 0.52734,-1.58203 1.34765,-3.10547 0.83985,-1.52344 2.03125,-2.71484 1.21094,-1.19141 2.79297,-1.91407 1.58203,-0.74218 3.61328,-0.74218 1.32813,0 2.1875,0.33203 0.85938,0.3125 1.36719,0.83984 0.50781,0.50781 0.70313,1.17188 0.19531,0.66406 0.19531,1.32812 0,0.74219 -0.17578,1.28906 -0.15625,0.52735 -0.44922,0.89844 -0.29297,0.37109 -0.6836,0.54688 -0.39062,0.17578 -0.82031,0.17578 -0.68359,0 -1.40625,-0.46875 0.48828,-1.28907 0.48828,-2.36328 0,-0.74219 -0.27343,-1.19141 -0.27344,-0.44922 -0.83985,-0.44922 -0.625,0 -1.25,0.56641 -0.625,0.5664 -1.21094,1.5039 -0.5664,0.9375 -1.05468,2.14844 -0.48828,1.21094 -0.85938,2.51953 -0.35156,1.3086 -0.5664,2.61719 -0.19532,1.28906 -0.19532,2.40234 0,1.01563 0.17578,1.67969 0.19532,0.64453 0.54688,1.01563 0.37109,0.37109 0.89844,0.52734 0.54687,0.13672 1.26953,0.13672 1.1914,0 2.14844,-0.3125 0.97656,-0.3125 1.8164,-0.85938 0.83985,-0.54687 1.58203,-1.28906 0.76172,-0.74219 1.52344,-1.58203 l 1.36719,0 z"
         style="font-style:normal;font-variant:normal;font-weight:normal;font-stretch:normal;font-family:Lobster;-inkscape-font-specification:Lobster;fill:#000000;fill-opacity:1;stroke:#ffffff;stroke-opacity:1"
         id="path4780" />
      <path
         d="m 284.99442,401.33542 q 0,0.66406 -0.25391,1.25 -0.25391,0.5664 -0.70313,0.99609 -0.42968,0.41016 -1.01562,0.66406 -0.56641,0.23438 -1.23047,0.23438 -0.66406,0 -1.25,-0.23438 -0.56641,-0.2539 -0.99609,-0.66406 -0.42969,-0.42969 -0.6836,-0.99609 -0.23437,-0.58594 -0.23437,-1.25 0,-0.66406 0.23437,-1.23047 0.25391,-0.58594 0.6836,-1.01563 0.42968,-0.44921 0.99609,-0.70312 0.58594,-0.25391 1.25,-0.25391 0.66406,0 1.23047,0.25391 0.58594,0.25391 1.01562,0.70312 0.44922,0.42969 0.70313,1.01563 0.25391,0.56641 0.25391,1.23047 z m 2.48046,18.14453 q -0.5664,1.62109 -1.26953,2.8125 -0.68359,1.19141 -1.44531,2.01172 -0.74219,0.82031 -1.54297,1.32812 -0.78125,0.50782 -1.52344,0.78125 -0.74218,0.27344 -1.42578,0.3711 -0.66406,0.0976 -1.1914,0.0976 -0.89844,0 -1.67969,-0.27343 -0.78125,-0.27344 -1.36719,-0.85938 -0.5664,-0.58594 -0.89844,-1.48437 -0.33203,-0.89844 -0.33203,-2.16797 0,-0.54688 0.0781,-1.19141 0.0781,-0.66406 0.23437,-1.42578 l 2.71485,-12.83203 5.76172,0 -2.8711,13.59375 q -0.0976,0.33203 -0.13672,0.66406 -0.0195,0.3125 -0.0195,0.625 0,0.83984 0.39063,1.17188 0.39062,0.3125 1.23047,0.3125 0.58593,0 1.13281,-0.25391 0.5664,-0.27344 1.03515,-0.74219 0.46875,-0.46875 0.83985,-1.11328 0.37109,-0.66406 0.60547,-1.42578 l 1.67968,0 z"
         style="font-style:normal;font-variant:normal;font-weight:normal;font-stretch:normal;font-family:Lobster;-inkscape-font-specification:Lobster;fill:#000000;fill-opacity:1;stroke:#ffffff;stroke-opacity:1"
         id="path4782" />
      <path
         d="m 308.52957,419.47995 q -0.5664,1.62109 -1.23047,2.8125 -0.66406,1.19141 -1.38672,2.01172 -0.70312,0.82031 -1.44531,1.32812 -0.74219,0.50782 -1.44531,0.78125 -0.70313,0.27344 -1.34766,0.3711 -0.64453,0.0976 -1.17187,0.0976 -1.69922,0 -2.71485,-0.91797 -0.99609,-0.9375 -1.21093,-2.7539 -0.48828,0.68359 -1.07422,1.34765 -0.58594,0.64454 -1.3086,1.17188 -0.72265,0.50781 -1.62109,0.83984 -0.87891,0.3125 -1.95312,0.3125 -1.03516,0 -1.99219,-0.33203 -0.95703,-0.33203 -1.69922,-1.09375 -0.74219,-0.76172 -1.19141,-1.99219 -0.44922,-1.23046 -0.44922,-3.00781 0,-1.36719 0.27344,-2.92969 0.27344,-1.5625 0.83985,-3.125 0.5664,-1.5625 1.40625,-2.98828 0.85937,-1.44531 1.99218,-2.53906 1.15235,-1.11328 2.59766,-1.75781 1.44531,-0.66406 3.18359,-0.66406 1.69922,0 2.46094,0.58593 0.78125,0.58594 0.78125,1.44532 l 0,0.29296 0.42969,-2.1289 5.76172,0 -2.8711,13.59375 q -0.0976,0.33203 -0.13672,0.66406 -0.0391,0.3125 -0.0391,0.625 0,1.71875 1.64063,1.71875 0.58593,0 1.07422,-0.29297 0.50781,-0.3125 0.91796,-0.82031 0.41016,-0.50781 0.72266,-1.19141 0.3125,-0.70312 0.52734,-1.46484 l 1.67969,0 z m -10.07812,-9.02344 q 0,-0.17578 -0.0781,-0.42969 -0.0781,-0.27343 -0.27344,-0.50781 -0.17578,-0.2539 -0.48828,-0.41015 -0.3125,-0.17579 -0.80078,-0.17579 -0.83984,0 -1.60156,0.54688 -0.74219,0.54687 -1.36719,1.46484 -0.625,0.89844 -1.11328,2.05078 -0.48828,1.15235 -0.83984,2.38282 -0.33203,1.21093 -0.50782,2.40234 -0.17578,1.17188 -0.17578,2.10938 0,1.15234 0.21485,1.77734 0.21484,0.625 0.50781,0.9375 0.3125,0.29297 0.66406,0.35156 0.35156,0.0586 0.625,0.0586 0.44922,0 0.9375,-0.21485 0.50781,-0.23437 0.95703,-0.66406 0.46875,-0.44922 0.83985,-1.11328 0.39062,-0.66406 0.58593,-1.54297 l 1.91407,-9.02344 z"
         style="font-style:normal;font-variant:normal;font-weight:normal;font-stretch:normal;font-family:Lobster;-inkscape-font-specification:Lobster;fill:#000000;fill-opacity:1;stroke:#ffffff;stroke-opacity:1"
         id="path4784" />
      <path
         d="m 311.02957,399.36276 5.91797,-0.80078 -4.58984,21.60156 q -0.0977,0.33203 -0.13672,0.625 -0.0391,0.27344 -0.0391,0.54688 0,0.68359 0.35156,1.15234 0.35156,0.44922 1.28906,0.44922 0.56641,0 0.82031,-0.0781 0.25391,-0.0781 0.46875,-0.17579 -0.0781,1.07422 -0.48828,1.875 -0.39062,0.78125 -0.99609,1.3086 -0.60547,0.50781 -1.36719,0.76172 -0.76172,0.2539 -1.54297,0.2539 -0.89844,0 -1.67969,-0.27343 -0.78125,-0.29297 -1.36718,-0.87891 -0.56641,-0.60547 -0.89844,-1.52344 -0.33203,-0.91797 -0.33203,-2.20703 0,-0.52734 0.0781,-1.17187 0.0781,-0.66407 0.23438,-1.42579 l 4.27734,-20.03906 z"
         style="font-style:normal;font-variant:normal;font-weight:normal;font-stretch:normal;font-family:Lobster;-inkscape-font-specification:Lobster;fill:#000000;fill-opacity:1;stroke:#ffffff;stroke-opacity:1"
         id="path4786" />
      <path
         d="m 344.77957,419.85104 q -0.80078,2.01172 -2.16797,3.4375 -1.36718,1.40625 -2.96875,2.30469 -1.58203,0.87891 -3.24218,1.28906 -1.64063,0.41016 -3.02735,0.41016 -2.22656,0 -3.86719,-0.52734 -1.64062,-0.52735 -2.73437,-1.69922 -1.07422,-1.17188 -1.62109,-3.04688 -0.52735,-1.875 -0.52735,-4.57031 0,-1.36719 0.15625,-2.96875 0.17578,-1.62109 0.54688,-3.33984 0.37109,-1.71875 0.9375,-3.45704 0.58593,-1.73828 1.40625,-3.33984 0.82031,-1.62109 1.89453,-3.02734 1.07422,-1.40625 2.42187,-2.44141 1.34766,-1.03516 2.98828,-1.62109 1.64063,-0.60547 3.61329,-0.60547 1.38671,0 2.59765,0.3125 1.23047,0.29297 2.12891,0.9375 0.91797,0.64453 1.42578,1.66015 0.52734,1.01563 0.52734,2.44141 0,0.80078 -0.15625,1.48438 -0.13672,0.66406 -0.48828,1.17187 -0.33203,0.48828 -0.8789,0.76172 -0.52735,0.27344 -1.28907,0.27344 -0.46875,0 -1.09375,-0.17578 -0.60547,-0.17579 -1.17187,-0.85938 0.35156,-0.17578 0.68359,-0.54687 0.33203,-0.39063 0.58594,-0.87891 0.25391,-0.50781 0.41016,-1.09375 0.15625,-0.58594 0.15625,-1.17188 0,-0.46875 -0.13672,-0.91796 -0.11719,-0.44922 -0.41016,-0.78125 -0.29297,-0.33204 -0.76172,-0.52735 -0.46875,-0.21484 -1.13281,-0.21484 -1.11328,0 -2.16797,0.82031 -1.03516,0.82031 -1.97266,2.22656 -0.91796,1.38672 -1.69921,3.24219 -0.76172,1.85547 -1.3086,3.92578 -0.54687,2.07031 -0.85937,4.25781 -0.3125,2.1875 -0.3125,4.21875 0,1.38672 0.19531,2.53907 0.21484,1.13281 0.74219,1.95312 0.54687,0.82031 1.46484,1.28906 0.9375,0.44922 2.40234,0.44922 2.36329,0 4.375,-1.05468 2.01172,-1.05469 3.41797,-2.94922 l 0.91797,0.41015 z"
         style="font-style:normal;font-variant:normal;font-weight:normal;font-stretch:normal;font-family:Lobster;-inkscape-font-specification:Lobster;fill:#000000;fill-opacity:1;stroke:#ffffff;stroke-opacity:1"
         id="path4788" />
      <path
         d="m 366.26395,411.45261 q -1.17188,1.23046 -3.02735,2.08984 -1.85547,0.85937 -4.0625,1.23047 -0.23437,2.77344 -1.07422,5 -0.82031,2.22656 -2.08984,3.78906 -1.26953,1.5625 -2.91016,2.40234 -1.64062,0.83985 -3.47656,0.83985 -1.38672,0 -2.57812,-0.33203 -1.17188,-0.35157 -2.03125,-1.09375 -0.83985,-0.76172 -1.3086,-1.95313 -0.48828,-1.21094 -0.48828,-2.92969 0,-1.17187 0.25391,-2.65625 0.23437,-1.5039 0.76172,-3.08593 0.54687,-1.58203 1.38672,-3.08594 0.85937,-1.52344 2.07031,-2.71484 1.23047,-1.19141 2.83203,-1.91407 1.60156,-0.74218 3.65234,-0.74218 5.13672,0 5.13672,6.38671 l 0,0.0391 q 0.0977,0.0391 0.17578,0.0391 0.0977,0 0.25391,0 0.70312,0 1.50391,-0.19531 0.82031,-0.21485 1.64062,-0.54688 0.82031,-0.33203 1.60156,-0.76172 0.78125,-0.44922 1.42578,-0.89843 l 0.35157,1.09375 z m -10.41016,3.4375 q -0.625,-0.15625 -0.85937,-0.60547 -0.21485,-0.46875 -0.21485,-1.07422 0,-0.83985 0.33203,-1.36719 0.35157,-0.54687 0.91797,-0.80078 -0.0391,-0.64453 -0.13672,-1.07422 -0.0976,-0.44922 -0.27343,-0.72266 -0.17579,-0.29296 -0.44922,-0.41015 -0.25391,-0.11719 -0.66407,-0.11719 -0.72265,0 -1.38671,0.56641 -0.66407,0.54687 -1.26954,1.46484 -0.58593,0.91797 -1.09375,2.10938 -0.48828,1.17187 -0.83984,2.42187 -0.35156,1.25 -0.54687,2.48047 -0.19532,1.21094 -0.19532,2.20703 0,0.99609 0.0977,1.62109 0.11719,0.625 0.35156,0.9961 0.25391,0.35156 0.64453,0.48828 0.39063,0.13672 0.95703,0.13672 0.72266,0 1.44532,-0.64453 0.74218,-0.64453 1.36718,-1.75782 0.625,-1.11328 1.09375,-2.63671 0.48829,-1.52344 0.72266,-3.28125 z"
         style="font-style:normal;font-variant:normal;font-weight:normal;font-stretch:normal;font-family:Lobster;-inkscape-font-specification:Lobster;fill:#000000;fill-opacity:1;stroke:#ffffff;stroke-opacity:1"
         id="path4790" />
      <path
         d="m 393.11942,419.47995 q -0.83985,2.46094 -1.81641,3.92578 -0.95703,1.46484 -1.95313,2.24609 -0.97656,0.76172 -1.93359,0.9961 -0.9375,0.23437 -1.73828,0.23437 -1.32813,0 -2.22656,-0.37109 -0.89844,-0.39063 -1.44532,-1.01563 -0.54687,-0.64453 -0.80078,-1.44531 -0.23437,-0.82031 -0.23437,-1.67969 0,-1.01562 0.27344,-2.36328 0.29296,-1.36718 0.625,-2.79297 0.33203,-1.42578 0.60546,-2.7539 0.29297,-1.32813 0.29297,-2.28516 0,-2.05078 -1.44531,-2.05078 -0.54687,0 -1.01562,0.29297 -0.46875,0.29297 -0.85938,0.80078 -0.39062,0.48828 -0.70312,1.17188 -0.3125,0.66406 -0.54688,1.42578 l -2.71484,12.83203 -5.76172,0 2.92969,-13.8086 q 0.11718,-0.46875 0.11718,-0.99609 0,-0.35156 -0.0586,-0.66406 -0.0586,-0.3125 -0.21484,-0.54688 -0.13672,-0.2539 -0.3711,-0.39062 -0.21484,-0.15625 -0.5664,-0.15625 -0.58594,0 -1.09375,0.29297 -0.48829,0.29297 -0.89844,0.80078 -0.39063,0.50781 -0.70313,1.1914 -0.3125,0.6836 -0.54687,1.44532 l -2.71485,12.83203 -5.76171,0 4.23828,-20 5.76172,0 -0.42969,2.07031 q 0.64453,-0.72266 1.28906,-1.15234 0.64453,-0.44922 1.26953,-0.6836 0.625,-0.2539 1.21094,-0.33203 0.58594,-0.0976 1.11328,-0.0976 0.78125,0 1.46484,0.19531 0.6836,0.17578 1.21094,0.58594 0.52735,0.41015 0.89844,1.07421 0.37109,0.64454 0.52734,1.58204 0.72266,-1.11329 1.48438,-1.77735 0.76172,-0.68359 1.48437,-1.03515 0.72266,-0.35157 1.38672,-0.46875 0.66406,-0.11719 1.21094,-0.11719 0.95703,0 1.75781,0.2539 0.82031,0.25391 1.40625,0.80079 0.60547,0.54687 0.9375,1.40625 0.33203,0.85937 0.33203,2.05078 0,0.80078 -0.15625,1.73828 -0.13672,0.91797 -0.35156,1.89453 -0.19531,0.95703 -0.44922,1.91406 -0.2539,0.95703 -0.46875,1.83594 -0.19531,0.87891 -0.35156,1.64062 -0.13672,0.74219 -0.13672,1.3086 0,0.74219 0.33203,1.21094 0.35156,0.46875 1.26953,0.46875 0.64453,0 1.13282,-0.25391 0.48828,-0.25391 0.8789,-0.72266 0.39063,-0.46875 0.70313,-1.11328 0.33203,-0.66406 0.64453,-1.44531 l 1.67969,0 z"
         style="font-style:normal;font-variant:normal;font-weight:normal;font-stretch:normal;font-family:Lobster;-inkscape-font-specification:Lobster;fill:#000000;fill-opacity:1;stroke:#ffffff;stroke-opacity:1"
         id="path4792" />
      <path
         d="m 423.19754,419.47995 q -0.83984,2.46094 -1.81641,3.92578 -0.95703,1.46484 -1.95312,2.24609 -0.97656,0.76172 -1.93359,0.9961 -0.9375,0.23437 -1.73829,0.23437 -1.32812,0 -2.22656,-0.37109 -0.89844,-0.39063 -1.44531,-1.01563 -0.54688,-0.64453 -0.80078,-1.44531 -0.23438,-0.82031 -0.23438,-1.67969 0,-1.01562 0.27344,-2.36328 0.29297,-1.36718 0.625,-2.79297 0.33203,-1.42578 0.60547,-2.7539 0.29297,-1.32813 0.29297,-2.28516 0,-2.05078 -1.44531,-2.05078 -0.54688,0 -1.01563,0.29297 -0.46875,0.29297 -0.85937,0.80078 -0.39063,0.48828 -0.70313,1.17188 -0.3125,0.66406 -0.54687,1.42578 l -2.71485,12.83203 -5.76172,0 2.92969,-13.8086 q 0.11719,-0.46875 0.11719,-0.99609 0,-0.35156 -0.0586,-0.66406 -0.0586,-0.3125 -0.21484,-0.54688 -0.13672,-0.2539 -0.37109,-0.39062 -0.21485,-0.15625 -0.56641,-0.15625 -0.58594,0 -1.09375,0.29297 -0.48828,0.29297 -0.89844,0.80078 -0.39062,0.50781 -0.70312,1.1914 -0.3125,0.6836 -0.54688,1.44532 l -2.71484,12.83203 -5.76172,0 4.23828,-20 5.76172,0 -0.42969,2.07031 q 0.64453,-0.72266 1.28907,-1.15234 0.64453,-0.44922 1.26953,-0.6836 0.625,-0.2539 1.21093,-0.33203 0.58594,-0.0976 1.11329,-0.0976 0.78125,0 1.46484,0.19531 0.68359,0.17578 1.21094,0.58594 0.52734,0.41015 0.89843,1.07421 0.3711,0.64454 0.52735,1.58204 0.72265,-1.11329 1.48437,-1.77735 0.76172,-0.68359 1.48438,-1.03515 0.72265,-0.35157 1.38672,-0.46875 0.66406,-0.11719 1.21093,-0.11719 0.95704,0 1.75782,0.2539 0.82031,0.25391 1.40625,0.80079 0.60547,0.54687 0.9375,1.40625 0.33203,0.85937 0.33203,2.05078 0,0.80078 -0.15625,1.73828 -0.13672,0.91797 -0.35156,1.89453 -0.19532,0.95703 -0.44922,1.91406 -0.25391,0.95703 -0.46875,1.83594 -0.19532,0.87891 -0.35157,1.64062 -0.13671,0.74219 -0.13671,1.3086 0,0.74219 0.33203,1.21094 0.35156,0.46875 1.26953,0.46875 0.64453,0 1.13281,-0.25391 0.48828,-0.25391 0.87891,-0.72266 0.39062,-0.46875 0.70312,-1.11328 0.33203,-0.66406 0.64453,-1.44531 l 1.67969,0 z"
         style="font-style:normal;font-variant:normal;font-weight:normal;font-stretch:normal;font-family:Lobster;-inkscape-font-specification:Lobster;fill:#000000;fill-opacity:1;stroke:#ffffff;stroke-opacity:1"
         id="path4794" />
      <path
         d="m 438.2366,419.47995 q -0.83984,1.40625 -1.93359,2.73437 -1.07422,1.32813 -2.44141,2.36329 -1.34765,1.03515 -3.00781,1.67968 -1.64062,0.625 -3.61328,0.625 -1.42578,0 -2.57813,-0.35156 -1.15234,-0.37109 -1.97265,-1.13281 -0.82031,-0.76172 -1.25,-1.95313 -0.44922,-1.21093 -0.44922,-2.91015 0,-1.15235 0.23437,-2.65625 0.23438,-1.50391 0.74219,-3.08594 0.50781,-1.58203 1.34766,-3.10547 0.83984,-1.52344 2.03125,-2.71484 1.1914,-1.21094 2.79297,-1.9336 1.60156,-0.74218 3.65234,-0.74218 1.34766,0 2.1875,0.33203 0.85938,0.3125 1.34766,0.83984 0.50781,0.52734 0.68359,1.23047 0.19531,0.68359 0.19531,1.42578 0,1.73828 -0.76172,3.24219 -0.76171,1.48437 -2.05078,2.59765 -1.26953,1.11329 -2.92968,1.79688 -1.66016,0.68359 -3.45704,0.80078 -0.0391,0.44922 -0.0781,0.85938 -0.0195,0.39062 -0.0195,0.74218 0,1.01563 0.17578,1.67969 0.19531,0.64453 0.54687,1.01563 0.3711,0.37109 0.89844,0.52734 0.54688,0.13672 1.26953,0.13672 1.19141,0 2.14844,-0.3125 0.97656,-0.3125 1.81641,-0.85938 0.83984,-0.54687 1.58203,-1.28906 0.76172,-0.74219 1.52344,-1.58203 l 1.36718,0 z m -10.91797,-2.83203 q 1.13282,-0.0781 2.1875,-0.64453 1.05469,-0.56641 1.85547,-1.46485 0.80078,-0.91797 1.26953,-2.07031 0.48829,-1.17187 0.48829,-2.42187 0,-0.74219 -0.21485,-1.19141 -0.21484,-0.44922 -0.78125,-0.44922 -0.76172,0 -1.5039,0.74219 -0.72266,0.72265 -1.36719,1.89453 -0.64453,1.17187 -1.15235,2.65625 -0.48828,1.46484 -0.78125,2.94922 z"
         style="font-style:normal;font-variant:normal;font-weight:normal;font-stretch:normal;font-family:Lobster;-inkscape-font-specification:Lobster;fill:#000000;fill-opacity:1;stroke:#ffffff;stroke-opacity:1"
         id="path4796" />
      <path
         d="m 435.38504,426.64792 4.23828,-20 5.76172,0 -0.50781,2.48047 q 0.52734,-0.46875 1.07422,-0.91797 0.54687,-0.44922 1.13281,-0.78125 0.60547,-0.35156 1.25,-0.56641 0.64453,-0.21484 1.36719,-0.21484 0.68359,0 1.1914,0.2539 0.52735,0.25391 0.87891,0.66407 0.35156,0.41015 0.52734,0.95703 0.17578,0.54687 0.17578,1.13281 0,0.52734 -0.17578,1.05469 -0.17578,0.50781 -0.54687,0.91797 -0.35156,0.41015 -0.89844,0.68359 -0.54687,0.25391 -1.26953,0.25391 -0.56641,0 -0.87891,-0.19532 -0.29297,-0.19531 -0.44922,-0.48828 -0.15625,-0.29297 -0.23437,-0.625 -0.0586,-0.35156 -0.13672,-0.64453 -0.0781,-0.29297 -0.21484,-0.48828 -0.11719,-0.19531 -0.41016,-0.19531 -0.91797,0 -1.54297,0.42969 -0.625,0.41015 -1.36719,1.09375 l -3.20312,15.19531 -5.76172,0 z"
         style="font-style:normal;font-variant:normal;font-weight:normal;font-stretch:normal;font-family:Lobster;-inkscape-font-specification:Lobster;fill:#000000;fill-opacity:1;stroke:#ffffff;stroke-opacity:1"
         id="path4798" />
      <path
         d="m 468.70535,419.47995 q -0.83984,1.40625 -1.93359,2.73437 -1.07422,1.32813 -2.44141,2.36329 -1.34765,1.03515 -3.00781,1.67968 -1.64062,0.625 -3.61328,0.625 -1.42578,0 -2.57813,-0.35156 -1.15234,-0.37109 -1.97265,-1.13281 -0.82031,-0.76172 -1.25,-1.95313 -0.44922,-1.21093 -0.44922,-2.91015 0,-1.15235 0.23437,-2.65625 0.23438,-1.52344 0.74219,-3.10547 0.52735,-1.58203 1.34766,-3.10547 0.83984,-1.52344 2.03125,-2.71484 1.21094,-1.19141 2.79297,-1.91407 1.58203,-0.74218 3.61328,-0.74218 1.32812,0 2.1875,0.33203 0.85937,0.3125 1.36719,0.83984 0.50781,0.50781 0.70312,1.17188 0.19531,0.66406 0.19531,1.32812 0,0.74219 -0.17578,1.28906 -0.15625,0.52735 -0.44922,0.89844 -0.29297,0.37109 -0.68359,0.54688 -0.39063,0.17578 -0.82031,0.17578 -0.6836,0 -1.40625,-0.46875 0.48828,-1.28907 0.48828,-2.36328 0,-0.74219 -0.27344,-1.19141 -0.27344,-0.44922 -0.83984,-0.44922 -0.625,0 -1.25,0.56641 -0.625,0.5664 -1.21094,1.5039 -0.56641,0.9375 -1.05469,2.14844 -0.48828,1.21094 -0.85937,2.51953 -0.35157,1.3086 -0.56641,2.61719 -0.19531,1.28906 -0.19531,2.40234 0,1.01563 0.17578,1.67969 0.19531,0.64453 0.54687,1.01563 0.3711,0.37109 0.89844,0.52734 0.54688,0.13672 1.26953,0.13672 1.19141,0 2.14844,-0.3125 0.97656,-0.3125 1.81641,-0.85938 0.83984,-0.54687 1.58203,-1.28906 0.76172,-0.74219 1.52344,-1.58203 l 1.36718,0 z"
         style="font-style:normal;font-variant:normal;font-weight:normal;font-stretch:normal;font-family:Lobster;-inkscape-font-specification:Lobster;fill:#000000;fill-opacity:1;stroke:#ffffff;stroke-opacity:1"
         id="path4800" />
      <path
         d="m 479.93582,420.96432 q -0.3125,1.73829 -0.97656,2.8711 -0.66406,1.13281 -1.58203,1.8164 -0.91797,0.6836 -2.03125,0.95704 -1.11328,0.27343 -2.32422,0.27343 -1.40625,0 -2.55859,-0.35156 -1.13282,-0.37109 -1.95313,-1.13281 -0.80078,-0.76172 -1.25,-1.95313 -0.44922,-1.21093 -0.44922,-2.91015 0,-1.15235 0.23438,-2.65625 0.23437,-1.50391 0.74218,-3.08594 0.50782,-1.58203 1.34766,-3.10547 0.83984,-1.52344 2.03125,-2.71484 1.19141,-1.21094 2.79297,-1.9336 1.60156,-0.74218 3.65234,-0.74218 1.34766,0 2.1875,0.33203 0.85938,0.3125 1.34766,0.83984 0.50781,0.52734 0.68359,1.23047 0.19532,0.68359 0.19532,1.42578 0,1.73828 -0.76172,3.24219 -0.76172,1.48437 -2.05078,2.59765 -1.26954,1.11329 -2.92969,1.79688 -1.66016,0.68359 -3.45703,0.80078 -0.0391,0.33203 -0.0781,0.64453 -0.0195,0.29297 -0.0195,0.56641 0,0.95703 0.19531,1.60156 0.19532,0.64453 0.52735,1.03516 0.33203,0.37109 0.78125,0.52734 0.44922,0.15625 0.97656,0.15625 0.58594,0 1.21094,-0.17578 0.64453,-0.17578 1.25,-0.46875 0.625,-0.29297 1.21093,-0.66406 0.58594,-0.39063 1.05469,-0.82032 z m -6.83594,-4.3164 q 1.15235,-0.0391 2.20704,-0.60547 1.05468,-0.58594 1.85546,-1.48438 0.82032,-0.91796 1.28907,-2.08984 0.48828,-1.17187 0.48828,-2.42187 0,-0.74219 -0.21485,-1.19141 -0.21484,-0.44922 -0.78125,-0.44922 -0.76171,0 -1.5039,0.76172 -0.72266,0.74219 -1.36719,1.93359 -0.625,1.19141 -1.15234,2.65625 -0.50782,1.46485 -0.82032,2.89063 z"
         style="font-style:normal;font-variant:normal;font-weight:normal;font-stretch:normal;font-family:Lobster;-inkscape-font-specification:Lobster;fill:#000000;fill-opacity:1;stroke:#ffffff;stroke-opacity:1"
         id="path4802" />
      <path
         d="m 494.50613,426.64792 5.42969,-25.44922 5.91797,-0.78125 -2.83203,13.35937 q 1.01562,-0.0781 1.91406,-0.54687 0.91797,-0.46875 1.69922,-1.19141 0.78125,-0.74218 1.40625,-1.69922 0.625,-0.95703 1.05469,-2.01171 0.44922,-1.07422 0.68359,-2.1875 0.23438,-1.13282 0.23438,-2.20704 0,-1.11328 -0.29297,-2.08984 -0.27344,-0.99609 -0.87891,-1.73828 -0.58594,-0.76172 -1.54297,-1.19141 -0.9375,-0.42968 -2.24609,-0.42968 -2.44141,0 -4.375,0.66406 -1.91406,0.66406 -3.24219,1.91406 -1.32812,1.25 -2.03125,3.06641 -0.70312,1.79687 -0.70312,4.08203 0,0.76172 0.0781,1.25 0.0977,0.46875 0.19531,0.76172 0.0977,0.27343 0.17579,0.42968 0.0976,0.15625 0.0976,0.27344 -1.03515,0 -1.83594,-0.19531 -0.80078,-0.21484 -1.34765,-0.66406 -0.52735,-0.44922 -0.82031,-1.19141 -0.27344,-0.74219 -0.27344,-1.83594 0,-1.32812 0.5664,-2.61718 0.58594,-1.28907 1.58204,-2.44141 1.01562,-1.15234 2.36328,-2.12891 1.36718,-0.97656 2.91015,-1.67968 1.5625,-0.72266 3.24219,-1.11329 1.69922,-0.41015 3.37891,-0.41015 2.46093,0 4.23828,0.66406 1.77734,0.64453 2.92969,1.73828 1.17187,1.09375 1.71875,2.51953 0.54687,1.40625 0.54687,2.94922 0,1.91406 -0.80078,3.82813 -0.78125,1.91406 -2.28516,3.45703 -1.48437,1.52344 -3.63281,2.48047 -2.12891,0.95703 -4.82422,0.95703 l -0.21484,0 -2.44141,11.40625 -5.74219,0 z"
         style="font-style:normal;font-variant:normal;font-weight:normal;font-stretch:normal;font-family:Lobster;-inkscape-font-specification:Lobster;fill:#000000;fill-opacity:1;stroke:#ffffff;stroke-opacity:1"
         id="path4804" />
      <path
         d="m 512.18192,426.64792 4.23828,-20 5.76172,0 -0.50782,2.48047 q 0.52735,-0.46875 1.07422,-0.91797 0.54688,-0.44922 1.13281,-0.78125 0.60547,-0.35156 1.25,-0.56641 0.64454,-0.21484 1.36719,-0.21484 0.6836,0 1.19141,0.2539 0.52734,0.25391 0.8789,0.66407 0.35157,0.41015 0.52735,0.95703 0.17578,0.54687 0.17578,1.13281 0,0.52734 -0.17578,1.05469 -0.17578,0.50781 -0.54688,0.91797 -0.35156,0.41015 -0.89843,0.68359 -0.54688,0.25391 -1.26954,0.25391 -0.5664,0 -0.8789,-0.19532 -0.29297,-0.19531 -0.44922,-0.48828 -0.15625,-0.29297 -0.23438,-0.625 -0.0586,-0.35156 -0.13671,-0.64453 -0.0781,-0.29297 -0.21485,-0.48828 -0.11719,-0.19531 -0.41015,-0.19531 -0.91797,0 -1.54297,0.42969 -0.625,0.41015 -1.36719,1.09375 l -3.20313,15.19531 -5.76171,0 z"
         style="font-style:normal;font-variant:normal;font-weight:normal;font-stretch:normal;font-family:Lobster;-inkscape-font-specification:Lobster;fill:#000000;fill-opacity:1;stroke:#ffffff;stroke-opacity:1"
         id="path4806" />
      <path
         d="m 551.26395,411.45261 q -1.17188,1.23046 -3.02735,2.08984 -1.85547,0.85937 -4.0625,1.23047 -0.23437,2.77344 -1.07422,5 -0.82031,2.22656 -2.08984,3.78906 -1.26953,1.5625 -2.91016,2.40234 -1.64062,0.83985 -3.47656,0.83985 -1.38672,0 -2.57812,-0.33203 -1.17188,-0.35157 -2.03125,-1.09375 -0.83985,-0.76172 -1.3086,-1.95313 -0.48828,-1.21094 -0.48828,-2.92969 0,-1.17187 0.25391,-2.65625 0.23437,-1.5039 0.76172,-3.08593 0.54687,-1.58203 1.38672,-3.08594 0.85937,-1.52344 2.07031,-2.71484 1.23047,-1.19141 2.83203,-1.91407 1.60156,-0.74218 3.65234,-0.74218 5.13672,0 5.13672,6.38671 l 0,0.0391 q 0.0977,0.0391 0.17578,0.0391 0.0977,0 0.25391,0 0.70312,0 1.50391,-0.19531 0.82031,-0.21485 1.64062,-0.54688 0.82031,-0.33203 1.60156,-0.76172 0.78125,-0.44922 1.42578,-0.89843 l 0.35157,1.09375 z m -10.41016,3.4375 q -0.625,-0.15625 -0.85937,-0.60547 -0.21485,-0.46875 -0.21485,-1.07422 0,-0.83985 0.33203,-1.36719 0.35157,-0.54687 0.91797,-0.80078 -0.0391,-0.64453 -0.13672,-1.07422 -0.0976,-0.44922 -0.27343,-0.72266 -0.17579,-0.29296 -0.44922,-0.41015 -0.25391,-0.11719 -0.66407,-0.11719 -0.72265,0 -1.38671,0.56641 -0.66407,0.54687 -1.26954,1.46484 -0.58593,0.91797 -1.09375,2.10938 -0.48828,1.17187 -0.83984,2.42187 -0.35156,1.25 -0.54687,2.48047 -0.19532,1.21094 -0.19532,2.20703 0,0.99609 0.0977,1.62109 0.11719,0.625 0.35156,0.9961 0.25391,0.35156 0.64453,0.48828 0.39063,0.13672 0.95703,0.13672 0.72266,0 1.44532,-0.64453 0.74218,-0.64453 1.36718,-1.75782 0.625,-1.11328 1.09375,-2.63671 0.48829,-1.52344 0.72266,-3.28125 z"
         style="font-style:normal;font-variant:normal;font-weight:normal;font-stretch:normal;font-family:Lobster;-inkscape-font-specification:Lobster;fill:#000000;fill-opacity:1;stroke:#ffffff;stroke-opacity:1"
         id="path4808" />
      <path
         d="m 549.95535,429.85104 q -0.42968,2.14844 -1.25,3.47657 -0.80078,1.32812 -1.79687,2.07031 -0.97656,0.74219 -2.05078,0.99609 -1.09375,0.25391 -2.08985,0.25391 -0.91797,0 -1.71875,-0.25391 -0.82031,-0.23437 -1.42578,-0.72265 -0.625,-0.46875 -0.97656,-1.21094 -0.37109,-0.72266 -0.37109,-1.69922 0,-1.25 0.60546,-2.20703 0.58594,-0.9375 1.54297,-1.66016 0.9375,-0.72265 2.10938,-1.23047 1.17187,-0.50781 2.30469,-0.85937 l 4.27734,-20.15625 5.76172,0 -3.96485,18.55469 q 0.91797,-0.3125 1.66016,-0.74219 0.74219,-0.44922 1.34766,-1.11328 0.625,-0.6836 1.11328,-1.6211 0.50781,-0.9375 0.9375,-2.24609 l 1.67969,0 q -0.60547,1.99219 -1.44532,3.32031 -0.82031,1.32813 -1.77734,2.1875 -0.9375,0.83985 -1.93359,1.28906 -0.9961,0.44922 -1.9336,0.6836 l -0.60547,2.89062 z m 5.95703,-28.55468 q 0,0.66406 -0.2539,1.25 -0.25391,0.5664 -0.6836,0.99609 -0.42968,0.41016 -1.01562,0.66406 -0.56641,0.23438 -1.23047,0.23438 -0.66406,0 -1.25,-0.23438 -0.56641,-0.2539 -0.99609,-0.66406 -0.42969,-0.42969 -0.6836,-0.99609 -0.23437,-0.58594 -0.23437,-1.25 0,-0.66407 0.23437,-1.25 0.25391,-0.58594 0.6836,-1.01563 0.42968,-0.42969 0.99609,-0.68359 0.58594,-0.25391 1.25,-0.25391 0.66406,0 1.23047,0.25391 0.58594,0.2539 1.01562,0.68359 0.42969,0.42969 0.6836,1.01563 0.2539,0.58593 0.2539,1.25 z m -11.5039,27.51953 q -0.78125,0.29297 -1.48438,0.625 -0.72265,0.35156 -1.25,0.76172 -0.54687,0.41015 -0.85937,0.89843 -0.33203,0.50782 -0.33203,1.11328 0,0.21485 0.0781,0.44922 0.0781,0.23438 0.25391,0.42969 0.17578,0.19531 0.42969,0.3125 0.2539,0.11719 0.60546,0.11719 0.625,0 1.26954,-0.87891 0.64453,-0.85937 1.03515,-2.67578 l 0.25391,-1.15234 z"
         style="font-style:normal;font-variant:normal;font-weight:normal;font-stretch:normal;font-family:Lobster;-inkscape-font-specification:Lobster;fill:#000000;fill-opacity:1;stroke:#ffffff;stroke-opacity:1"
         id="path4810" />
      <path
         d="m 572.76785,419.47995 q -0.83984,1.40625 -1.93359,2.73437 -1.07422,1.32813 -2.44141,2.36329 -1.34765,1.03515 -3.00781,1.67968 -1.64062,0.625 -3.61328,0.625 -1.42578,0 -2.57813,-0.35156 -1.15234,-0.37109 -1.97265,-1.13281 -0.82031,-0.76172 -1.25,-1.95313 -0.44922,-1.21093 -0.44922,-2.91015 0,-1.15235 0.23437,-2.65625 0.23438,-1.50391 0.74219,-3.08594 0.50781,-1.58203 1.34766,-3.10547 0.83984,-1.52344 2.03125,-2.71484 1.1914,-1.21094 2.79297,-1.9336 1.60156,-0.74218 3.65234,-0.74218 1.34766,0 2.1875,0.33203 0.85938,0.3125 1.34766,0.83984 0.50781,0.52734 0.68359,1.23047 0.19531,0.68359 0.19531,1.42578 0,1.73828 -0.76172,3.24219 -0.76171,1.48437 -2.05078,2.59765 -1.26953,1.11329 -2.92968,1.79688 -1.66016,0.68359 -3.45704,0.80078 -0.0391,0.44922 -0.0781,0.85938 -0.0195,0.39062 -0.0195,0.74218 0,1.01563 0.17578,1.67969 0.19531,0.64453 0.54687,1.01563 0.3711,0.37109 0.89844,0.52734 0.54688,0.13672 1.26953,0.13672 1.19141,0 2.14844,-0.3125 0.97656,-0.3125 1.81641,-0.85938 0.83984,-0.54687 1.58203,-1.28906 0.76172,-0.74219 1.52344,-1.58203 l 1.36718,0 z m -10.91797,-2.83203 q 1.13282,-0.0781 2.1875,-0.64453 1.05469,-0.56641 1.85547,-1.46485 0.80078,-0.91797 1.26953,-2.07031 0.48829,-1.17187 0.48829,-2.42187 0,-0.74219 -0.21485,-1.19141 -0.21484,-0.44922 -0.78125,-0.44922 -0.76172,0 -1.5039,0.74219 -0.72266,0.72265 -1.36719,1.89453 -0.64453,1.17187 -1.15235,2.65625 -0.48828,1.46484 -0.78125,2.94922 z"
         style="font-style:normal;font-variant:normal;font-weight:normal;font-stretch:normal;font-family:Lobster;-inkscape-font-specification:Lobster;fill:#000000;fill-opacity:1;stroke:#ffffff;stroke-opacity:1"
         id="path4812" />
      <path
         d="m 583.76395,420.96432 q -0.3125,1.73829 -0.97657,2.8711 -0.66406,1.13281 -1.58203,1.8164 -0.91797,0.6836 -2.05078,0.95704 -1.11328,0.27343 -2.32422,0.27343 -1.38672,0 -2.53906,-0.35156 -1.13281,-0.37109 -1.95312,-1.13281 -0.80079,-0.76172 -1.25,-1.95313 -0.44922,-1.21093 -0.44922,-2.91015 0,-1.15235 0.23437,-2.65625 0.23438,-1.52344 0.74219,-3.10547 0.52734,-1.58203 1.34766,-3.10547 0.83984,-1.52344 2.03125,-2.71484 1.1914,-1.19141 2.77343,-1.91407 1.60157,-0.74218 3.63282,-0.74218 1.30859,0 2.16796,0.3125 0.85938,0.3125 1.36719,0.83984 0.50781,0.52734 0.70313,1.19141 0.19531,0.66406 0.19531,1.36718 0,0.76172 -0.17578,1.3086 -0.17578,0.54687 -0.46875,0.89843 -0.29297,0.33204 -0.6836,0.50782 -0.37109,0.15625 -0.78125,0.15625 -0.74218,0 -1.40625,-0.46875 0.23438,-0.625 0.35157,-1.21094 0.13672,-0.58594 0.13672,-1.15234 0,-0.72266 -0.27344,-1.17188 -0.25391,-0.46875 -0.82031,-0.46875 -0.64454,0 -1.26954,0.58594 -0.625,0.5664 -1.21093,1.5039 -0.56641,0.9375 -1.05469,2.14844 -0.48828,1.21094 -0.85938,2.48047 -0.35156,1.26953 -0.5664,2.5 -0.19531,1.23047 -0.19531,2.22656 0,0.9375 0.17578,1.58203 0.17578,0.64454 0.48828,1.03516 0.33203,0.37109 0.76172,0.54688 0.44922,0.15625 0.97656,0.15625 0.58594,0 1.23047,-0.19532 0.64453,-0.19531 1.28906,-0.50781 0.64453,-0.33203 1.23047,-0.72266 0.58594,-0.39062 1.05469,-0.78125 z"
         style="font-style:normal;font-variant:normal;font-weight:normal;font-stretch:normal;font-family:Lobster;-inkscape-font-specification:Lobster;fill:#000000;fill-opacity:1;stroke:#ffffff;stroke-opacity:1"
         id="path4814" />
      <path
         d="m 592.43582,398.56198 0,6.21094 7.40235,0 0,2.79297 -7.40235,0 0,11.875 q 0,2.67578 0.72266,3.4375 0.74219,0.76172 2.98828,0.76172 l 3.69141,0 0,3.00781 -3.69141,0 q -4.16016,0 -5.74219,-1.54297 -1.58203,-1.5625 -1.58203,-5.66406 l 0,-11.875 -2.63672,0 0,-2.79297 2.63672,0 0,-6.21094 3.61328,0 z"
         style="stroke:#ffffff;stroke-opacity:1;fill:#000000;fill-opacity:1"
         id="path4816" />
    </g>
  </g>
</svg>
