<svg xmlns="http://www.w3.org/2000/svg" width="761.339" height="761.34" viewBox="0 0 761.339 761.34"><path d="M236.385 345.886c23.194 0 42.064-18.875 42.064-42.07 0-23.214-18.87-42.1-42.066-42.1-23.223 0-42.117 18.886-42.117 42.1 0 23.196 18.895 42.07 42.118 42.07zm0-67.993c14.27 0 25.884 11.63 25.884 25.92 0 14.276-11.614 25.89-25.886 25.89-14.303 0-25.937-11.614-25.937-25.89 0-14.29 11.634-25.92 25.938-25.92zM237.092 469.468c23.207 0 42.085-18.887 42.085-42.102 0-23.207-18.878-42.085-42.085-42.085-23.203 0-42.08 18.88-42.08 42.086 0 23.215 18.878 42.102 42.08 42.102zm0-68.01c14.283 0 25.905 11.62 25.905 25.904 0 14.29-11.622 25.92-25.905 25.92s-25.9-11.63-25.9-25.92c0-14.283 11.617-25.905 25.9-25.905zM239.22 508.818c-23.207 0-42.085 18.898-42.085 42.125 0 23.207 18.878 42.085 42.085 42.085 23.203 0 42.08-18.878 42.08-42.085 0-23.226-18.877-42.125-42.08-42.125zm0 68.03c-14.283 0-25.905-11.62-25.905-25.904 0-14.308 11.622-25.945 25.905-25.945s25.9 11.637 25.9 25.944c0 14.283-11.617 25.904-25.9 25.904zM616.763 130.37c-.433 0-.886.015-1.347.043-3.77.012-49.528.024-114.698.024-4.466 0-8.09 3.624-8.09 8.09l.008 5.857c-.158 2.876-1.242 7.702-7.006 7.702h-.01c-6.365-.162-41.084-.194-69.093-.194-55.413 0-129.466.133-139.91.23-3.31 0-4.333-1.096-4.67-1.452-1.617-1.735-1.937-5.335-1.84-6.735.02-.238.033-.473.033-.716v-4.693c0-4.466-3.625-8.09-8.09-8.09-63.116 0-107.458-.012-111.175-.024-9.04-.546-14.97 4.817-15.735 13.858-.198 2.428-.247 530.048-.036 532.73.797 8.51 6.326 13.802 14.425 13.802.452 0 .925-.016 1.41-.053 5.15-.062 102.123-.105 232.2-.105 130.05 0 227.015.048 232.21.104.476.036.94.052 1.398.052 8.175 0 13.688-5.323 14.376-13.704.255-2.432.3-530.427.057-532.854-.728-8.556-6.25-13.875-14.417-13.875zM615 674.584c-14.73-.1-149.813-.117-231.86-.117-82.143 0-217.442.017-231.903.117-.105-30.423-.073-497.75.044-527.992 4.01.012 21.735.028 102.73.028.304 4 1.553 10.11 5.98 14.944 2.814 3.078 7.988 6.743 16.887 6.743 10.31-.093 84.28-.23 139.656-.23 40.03 0 63.787.064 68.69.185l.71.012c15.19 0 21.724-12.208 22.747-21.657 84.355 0 102.39-.016 106.365-.028.124 30.07.088 498.086-.045 527.995zM686.578 135.073l-.01-30.524c0-23.212-19.742-36.795-38.852-38.194-.595-.138-1.214-.21-1.832-.21h-.02l-137.057.356v-3.25c0-4.464-3.616-8.08-8.073-8.09-15.004-.027-34.282-.032-56.32-.032C440.2 24.08 413.43 0 381.348 0c-32.086 0-58.856 24.072-63.067 55.106h-56.234c-4.466 0-8.09 3.625-8.09 8.09v3.96l-141.574.368c-.42 0-.833.036-1.246.097-23.288 3.687-35.847 25.926-36.34 37.297-.163 3.317-.167 195.507-.022 587.543l.012 30.51c0 24.02 21.415 38.37 42.118 38.37 54.026 0 511.197-.417 527.907-.79 26.205-.528 41.107-25.018 41.75-38.062.14-3.294.147-195.44.018-587.415zm-16.18 586.686c-.224 4.533-8.79 22.27-25.93 22.62-16.642.375-473.553.784-527.563.784-12.75 0-25.937-8.3-25.937-22.19l-.012-30.518c-.182-478.29-.093-583.122.004-586.795.162-3.765 7.407-19.262 22.135-21.956l148.972-.388c4.46-.012 8.07-3.628 8.07-8.09v-3.944h55.66c4.44 0 8.05-3.58 8.09-8.02.218-25.958 21.508-47.082 47.46-47.082 25.95 0 47.243 21.135 47.462 47.11.04 4.44 3.647 8.017 8.09 8.017 21.288 0 40.284 0 55.724.02v3.28c0 2.148.854 4.212 2.38 5.73 1.516 1.512 3.57 2.36 5.71 2.36h.022l143.78-.37c.34.06.69.092 1.045.104 12.04.48 24.83 8.39 24.83 22.116l.008 30.528c.153 478.653.084 583.31 0 586.685zM560.71 291.57H311.154c-4.466 0-8.09 3.624-8.09 8.09s3.625 8.09 8.09 8.09H560.71c4.466 0 8.09-3.625 8.09-8.09s-3.62-8.09-8.09-8.09zM560.71 422.322H311.154c-4.466 0-8.09 3.624-8.09 8.09s3.625 8.09 8.09 8.09H560.71c4.466 0 8.09-3.624 8.09-8.09s-3.62-8.09-8.09-8.09zM560.71 540.944H311.154c-4.466 0-8.09 3.624-8.09 8.09s3.625 8.09 8.09 8.09H560.71c4.466 0 8.09-3.624 8.09-8.09s-3.62-8.09-8.09-8.09zM138.93 103.73c0-4.464-3.624-8.09-8.09-8.09-.298 0-29.95.495-29.95 42.705 0 4.465 3.626 8.09 8.09 8.09s8.09-3.625 8.09-8.09c0-24.966 12.38-26.44 13.928-26.524 4.397-.087 7.933-3.675 7.933-8.09zM111.202 186.72c-4.466 0-8.09 3.625-8.09 8.09v411.685c0 4.466 3.625 8.09 8.09 8.09s8.09-3.624 8.09-8.09V194.81c0-4.465-3.62-8.09-8.09-8.09z"/></svg>