<svg xmlns="http://www.w3.org/2000/svg" width="125.155mm" height="11.632mm" viewBox="0 0 443.46095 41.214842"><g><g style="line-height:125%" font-size="40" font-family="sans-serif" letter-spacing="0" word-spacing="0" fill="#fff"><path d="M40.793 23.547q-.84 2.46-1.816 3.926-.977 1.464-1.973 2.246-.977.76-1.934.995-.937.234-1.718.234-1.33 0-2.227-.372-.898-.39-1.465-1.016-.547-.644-.8-1.445-.235-.82-.235-1.68 0-1.015.273-2.363.293-1.367.625-2.793.332-1.425.606-2.753.292-1.328.292-2.285 0-2.05-1.445-2.05-.528 0-.977.273-.45.273-.84.742-.37.47-.683 1.094-.293.626-.528 1.33-.51 2.675-1.114 5.878-.606 3.203-1.328 7.207h-5.762l5.488-25.528q-1.23-.097-2.558-.273-1.328-.176-2.735-.39l-5.643 26.19H6.555l5.703-26.562q-1.68.078-3.145.47-1.465.39-2.558 1.308-1.075.918-1.7 2.48-.625 1.543-.625 3.906 0 .762.08 1.25.096.47.194.762.098.274.176.43.097.156.097.273-1.035 0-1.836-.194-.8-.215-1.346-.664-.528-.45-.82-1.192Q.5 12.238.5 11.164q0-1.992.8-3.867.82-1.895 2.52-3.34 1.72-1.445 4.375-2.324 2.676-.88 6.387-.88.664 0 1.875.177 1.21.156 2.676.35 1.484.177 3.105.353 1.62.156 3.145.156 1.465 0 2.734-.196 1.27-.196 2.11-.762-.235.45-.45.88-.214.43-.45 1.015-.214.566-.448 1.367-.235.8-.548 1.992-.293 1.19-.664 2.85-.352 1.662-.8 3.947.644-.742 1.288-1.192.645-.467 1.25-.702.625-.254 1.172-.332.567-.097 1.055-.097.957 0 1.758.253.82.253 1.407.8.605.547.937 1.407.332.86.332 2.05 0 .8-.156 1.74-.137.917-.35 1.893-.197.957-.45 1.914-.254.957-.47 1.836-.195.88-.35 1.64-.138.743-.138 1.31 0 .742.332 1.21.332.47 1.27.47.644 0 1.133-.255.488-.254.88-.722.39-.47.702-1.114.33-.664.643-1.445h1.68z" style="-inkscape-font-specification:Lobster" font-family="Lobster"/><path d="M51.652 25.03q-.312 1.74-.976 2.872-.664 1.133-1.582 1.817-.918.682-2.03.956-1.115.273-2.326.273-1.406 0-2.558-.352-1.133-.37-1.953-1.133-.8-.762-1.25-1.953-.45-1.21-.45-2.91 0-1.153.235-2.657.234-1.504.742-3.086.508-1.583 1.348-3.106.84-1.524 2.03-2.715 1.192-1.212 2.794-1.935 1.6-.742 3.652-.742 1.348 0 2.188.332.86.313 1.347.84.508.528.684 1.23.195.684.195 1.426 0 1.74-.762 3.244-.76 1.484-2.05 2.597-1.27 1.115-2.93 1.798-1.66.684-3.457.8l-.078.645q-.02.293-.02.567 0 .957.196 1.6.196.646.528 1.037.332.37.78.527.45.156.978.156.586 0 1.21-.176.645-.175 1.25-.468.626-.293 1.212-.664.586-.39 1.054-.82zm-6.836-4.315q1.153-.04 2.207-.606 1.055-.587 1.856-1.485.82-.918 1.288-2.09.488-1.172.488-2.422 0-.742-.215-1.19-.213-.45-.78-.45-.762 0-1.504.76-.722.744-1.367 1.935-.626 1.19-1.153 2.656-.508 1.465-.82 2.89z" style="-inkscape-font-specification:Lobster" font-family="Lobster"/><path d="M84.563 6.105q0 .84-.235 1.543-.215.684-.605 1.192-.39.488-.957.762-.567.273-1.23.273-.763 0-1.388-.312-.605-.333-1.054-.938.742-.547 1.19-1.445.45-.918.45-1.953 0-1.29-.76-2.032-.763-.76-2.09-.76-.802 0-1.486.31-.664.294-1.152.84-.47.528-.742 1.27-.254.743-.254 1.622 0 1.328.645 2.5.644 1.17 1.62 2.304.977 1.134 2.11 2.306 1.133 1.152 2.11 2.48.976 1.31 1.62 2.852.645 1.523.645 3.38 0 1.972-.82 3.65-.82 1.66-2.285 2.892-1.446 1.21-3.418 1.894-1.954.704-4.24.704-1.913 0-3.475-.508-1.543-.49-2.657-1.407-1.093-.937-1.7-2.226-.604-1.29-.604-2.87 0-1.33.43-2.482.43-1.152 1.172-1.992.743-.86 1.758-1.348 1.016-.488 2.168-.488 1.406 0 2.363.703.958.703 1.193 1.934-1.055 0-1.895.293-.84.293-1.425.82-.586.528-.918 1.29-.313.74-.313 1.68 0 1.757 1.016 2.792 1.035 1.015 2.773 1.015 1.056 0 1.954-.372.9-.39 1.543-1.054.645-.665 1.016-1.583.37-.918.37-1.992 0-1.094-.37-2.09-.352-1.016-.957-1.953-.606-.957-1.367-1.875-.763-.918-1.564-1.836-.8-.937-1.562-1.874-.762-.938-1.368-1.914-.605-.997-.976-2.05-.352-1.056-.352-2.228 0-1.582.664-2.91.684-1.348 1.875-2.324 1.21-.977 2.852-1.524Q75.52.5 77.452.5q1.62 0 2.93.41 1.308.39 2.226 1.133.937.723 1.445 1.758.508 1.036.508 2.305z" style="-inkscape-font-specification:Lobster" font-family="Lobster"/><path d="M107.746 15.52q-1.172 1.23-3.027 2.09-1.857.86-4.064 1.23-.234 2.773-1.074 5-.82 2.226-2.09 3.79-1.27 1.56-2.91 2.4-1.64.84-3.477.84-1.386 0-2.578-.33-1.172-.352-2.03-1.095-.84-.76-1.31-1.953-.488-1.21-.488-2.93 0-1.17.253-2.656.234-1.504.762-3.086.547-1.582 1.387-3.086.86-1.523 2.07-2.714 1.23-1.192 2.832-1.915 1.6-.742 3.652-.742 5.137 0 5.137 6.387v.04q.098.038.176.038h.253q.703 0 1.504-.195.82-.215 1.64-.547.82-.332 1.602-.762.78-.45 1.425-.898l.35 1.094zm-10.41 3.437q-.625-.156-.86-.605-.214-.47-.214-1.075 0-.84.332-1.367.35-.547.918-.8-.04-.645-.137-1.075-.098-.45-.273-.722-.176-.293-.45-.41-.254-.118-.664-.118-.722 0-1.386.567-.665.546-1.27 1.464-.586.918-1.094 2.11-.488 1.172-.84 2.422-.35 1.25-.546 2.48-.196 1.21-.196 2.207 0 .996.098 1.62.117.626.352.997.253.352.644.49.39.135.957.135.723 0 1.445-.644.743-.645 1.368-1.758.625-1.113 1.093-2.637.49-1.523.723-3.28z" style="-inkscape-font-specification:Lobster" font-family="Lobster"/><path d="M119.563 23.547q-.84 1.406-1.934 2.734-1.075 1.33-2.442 2.365-1.348 1.035-3.008 1.68-1.64.624-3.614.624-1.425 0-2.578-.352-1.152-.37-1.972-1.133-.82-.762-1.25-1.953-.45-1.21-.45-2.91 0-1.153.235-2.657.235-1.523.743-3.105.527-1.582 1.348-3.106.84-1.523 2.032-2.714 1.21-1.192 2.793-1.915 1.582-.742 3.613-.742 1.328 0 2.188.332.86.313 1.367.84.508.508.703 1.172.195.664.195 1.328 0 .742-.175 1.29-.156.527-.45.898-.292.37-.682.547-.39.175-.82.175-.684 0-1.407-.468.488-1.29.488-2.364 0-.742-.273-1.19-.273-.45-.84-.45-.624 0-1.25.566-.624.565-1.21 1.503-.566.937-1.055 2.148-.488 1.212-.86 2.52-.35 1.31-.565 2.618-.196 1.29-.196 2.402 0 1.016.176 1.68.195.645.547 1.016.37.37.898.527.547.137 1.27.137 1.19 0 2.148-.313.977-.312 1.817-.86.84-.546 1.582-1.288.762-.743 1.523-1.583h1.367z" style="-inkscape-font-specification:Lobster" font-family="Lobster"/><path d="M128.117 5.402q0 .664-.254 1.25-.254.567-.703.996-.43.41-1.015.665-.567.234-1.23.234-.665 0-1.25-.234-.567-.254-.997-.665-.43-.43-.684-.996-.234-.586-.234-1.25t.234-1.23q.254-.586.684-1.016.43-.45.996-.703.586-.254 1.25-.254t1.23.253q.586.254 1.016.703.45.43.703 1.016.254.566.254 1.23zm2.48 18.145q-.566 1.62-1.27 2.812-.682 1.19-1.444 2.01-.742.82-1.543 1.33-.78.507-1.524.78-.742.274-1.425.372-.663.097-1.19.097-.9 0-1.68-.274-.782-.274-1.368-.86-.566-.586-.898-1.484-.332-.898-.332-2.168 0-.547.078-1.19.078-.665.234-1.427l2.715-12.832h5.76l-2.87 13.594q-.098.33-.137.663-.02.312-.02.625 0 .84.39 1.17.392.314 1.232.314.586 0 1.133-.254.566-.273 1.035-.742.468-.47.84-1.113.37-.664.605-1.426h1.68z" style="-inkscape-font-specification:Lobster" font-family="Lobster"/><path d="M151.652 23.547q-.566 1.62-1.23 2.812-.664 1.19-1.387 2.01-.703.82-1.445 1.33-.742.507-1.445.78-.704.274-1.348.372-.645.097-1.172.097-1.7 0-2.715-.92-.996-.936-1.21-2.753-.49.684-1.075 1.348-.586.644-1.31 1.172-.72.508-1.62.84-.88.312-1.953.312-1.035 0-1.992-.333-.957-.332-1.7-1.094-.74-.76-1.19-1.992-.45-1.23-.45-3.007 0-1.367.274-2.93.273-1.562.84-3.124.566-1.564 1.406-2.99.86-1.445 1.992-2.54 1.152-1.112 2.598-1.756 1.445-.665 3.183-.665 1.7 0 2.46.585.782.586.782 1.446v.294l.43-2.13h5.762l-2.87 13.595q-.1.33-.138.663-.04.312-.04.625 0 1.718 1.64 1.718.586 0 1.075-.293.507-.312.918-.82.41-.508.722-1.19.313-.704.528-1.466h1.68zm-10.078-9.024q0-.175-.078-.43-.078-.273-.273-.507-.176-.254-.49-.41-.31-.176-.8-.176-.84 0-1.6.547-.743.547-1.368 1.465-.625.898-1.113 2.05-.49 1.153-.84 2.383-.332 1.21-.508 2.403-.176 1.172-.176 2.11 0 1.15.215 1.776.215.625.508.938.313.293.665.35.35.06.625.06.45 0 .937-.215.508-.234.957-.664.47-.45.84-1.113.39-.664.586-1.543l1.914-9.024z" style="-inkscape-font-specification:Lobster" font-family="Lobster"/><path d="M154.152 3.43l5.918-.8-4.59 21.6q-.097.332-.136.625-.04.274-.04.547 0 .684.352 1.153.352.45 1.29.45.566 0 .82-.08.253-.077.468-.175-.078 1.074-.488 1.875-.39.78-.996 1.31-.606.506-1.367.76-.762.254-1.543.254-.9 0-1.68-.274-.78-.293-1.367-.88-.566-.605-.9-1.523-.33-.918-.33-2.207 0-.527.078-1.17.08-.666.235-1.427l4.277-20.04z" style="-inkscape-font-specification:Lobster" font-family="Lobster"/><path d="M187.902 23.918q-.8 2.012-2.168 3.437-1.367 1.407-2.968 2.305-1.582.88-3.243 1.29-1.64.41-3.027.41-2.226 0-3.867-.528-1.642-.527-2.735-1.7-1.075-1.17-1.622-3.046-.527-1.875-.527-4.57 0-1.368.156-2.97.176-1.62.547-3.34.37-1.718.937-3.456.586-1.738 1.406-3.34.82-1.62 1.894-3.027 1.075-1.406 2.422-2.442 1.347-1.034 2.988-1.62 1.64-.605 3.613-.605 1.388 0 2.6.312 1.23.293 2.127.938.918.644 1.426 1.66.528 1.016.528 2.44 0 .802-.156 1.486-.136.665-.488 1.173-.332.488-.88.76-.526.275-1.288.275-.47 0-1.094-.176-.605-.176-1.172-.86.352-.175.684-.546.332-.39.586-.88.254-.507.41-1.093.156-.586.156-1.172 0-.467-.136-.917-.117-.45-.41-.78-.293-.333-.762-.528-.47-.215-1.133-.215-1.113 0-2.168.82-1.036.82-1.974 2.227-.918 1.386-1.7 3.242-.76 1.854-1.307 3.925-.548 2.07-.86 4.258-.313 2.187-.313 4.218 0 1.388.195 2.54.215 1.133.742 1.953.547.82 1.465 1.29.937.45 2.4.45 2.365 0 4.376-1.056 2.012-1.055 3.418-2.95l.918.41z" style="-inkscape-font-specification:Lobster" font-family="Lobster"/><path d="M209.387 15.52q-1.172 1.23-3.028 2.09-1.856.86-4.063 1.23-.234 2.773-1.074 5-.82 2.226-2.09 3.79-1.27 1.56-2.91 2.4-1.64.84-3.477.84-1.387 0-2.578-.33-1.172-.352-2.03-1.095-.84-.76-1.31-1.953-.488-1.21-.488-2.93 0-1.17.254-2.656.234-1.504.76-3.086.548-1.582 1.388-3.086.86-1.523 2.07-2.714 1.23-1.192 2.833-1.915 1.6-.742 3.652-.742 5.137 0 5.137 6.387v.04q.097.038.175.038h.253q.703 0 1.504-.195.82-.215 1.64-.547.82-.332 1.602-.762.78-.45 1.425-.898l.352 1.094zm-10.41 3.437q-.625-.156-.86-.605-.215-.47-.215-1.075 0-.84.332-1.367.352-.547.918-.8-.04-.645-.136-1.075-.098-.45-.274-.722-.176-.293-.45-.41-.253-.118-.663-.118-.724 0-1.388.567-.664.546-1.27 1.464-.585.918-1.093 2.11-.49 1.172-.84 2.422-.352 1.25-.548 2.48-.195 1.21-.195 2.207 0 .996.098 1.62.117.626.35.997.255.352.646.49.39.135.958.135.722 0 1.445-.644.742-.645 1.367-1.758t1.094-2.637q.488-1.523.723-3.28z" style="-inkscape-font-specification:Lobster" font-family="Lobster"/><path d="M236.242 23.547q-.84 2.46-1.816 3.926-.957 1.464-1.953 2.246-.977.76-1.934.995-.938.234-1.74.234-1.327 0-2.226-.372-.898-.39-1.445-1.016-.548-.644-.802-1.445-.234-.82-.234-1.68 0-1.015.273-2.363.293-1.367.625-2.793.332-1.425.606-2.753.293-1.328.293-2.285 0-2.05-1.445-2.05-.547 0-1.015.292-.47.293-.86.8-.39.49-.703 1.173-.312.664-.547 1.426l-2.715 12.832h-5.76l2.928-13.81q.118-.468.118-.995 0-.35-.058-.664-.06-.312-.215-.547-.137-.255-.37-.39-.216-.158-.567-.158-.586 0-1.094.293-.488.293-.9.8-.39.51-.702 1.192-.312.684-.547 1.446l-2.714 12.832h-5.762l4.24-20h5.76l-.43 2.07q.646-.723 1.29-1.152.645-.45 1.27-.684.625-.255 1.21-.333.587-.097 1.114-.097.78 0 1.465.195.682.176 1.21.586.527.41.898 1.075.37.645.528 1.582.722-1.113 1.484-1.777.762-.684 1.484-1.035.723-.352 1.387-.47.665-.116 1.212-.116.957 0 1.758.253.82.253 1.406.8.606.547.938 1.407.332.86.332 2.05 0 .8-.157 1.74-.137.917-.352 1.893-.196.957-.45 1.914-.253.957-.468 1.836-.195.88-.352 1.64-.136.743-.136 1.31 0 .742.332 1.21.35.47 1.27.47.644 0 1.132-.255.488-.254.88-.722.39-.47.702-1.114.332-.664.644-1.445h1.68z" style="-inkscape-font-specification:Lobster" font-family="Lobster"/><path d="M266.32 23.547q-.84 2.46-1.816 3.926-.957 1.464-1.953 2.246-.976.76-1.933.995-.937.234-1.738.234-1.33 0-2.228-.372-.898-.39-1.445-1.016-.547-.644-.8-1.445-.235-.82-.235-1.68 0-1.015.273-2.363.293-1.367.625-2.793.332-1.425.606-2.753.293-1.328.293-2.285 0-2.05-1.447-2.05-.546 0-1.015.292-.47.293-.86.8-.39.49-.703 1.173-.312.664-.547 1.426l-2.714 12.832h-5.762l2.93-13.81q.117-.468.117-.995 0-.35-.06-.664-.058-.312-.215-.547-.136-.255-.37-.39-.216-.158-.567-.158-.586 0-1.094.293-.488.293-.898.8-.39.51-.704 1.192-.312.684-.546 1.446L238.8 30.715h-5.76l4.237-20h5.762l-.43 2.07q.644-.723 1.288-1.152.645-.45 1.27-.684.625-.255 1.21-.333.587-.097 1.114-.097.78 0 1.465.195.684.176 1.21.586.528.41.9 1.075.37.645.527 1.582.722-1.113 1.484-1.777.762-.684 1.484-1.035.723-.352 1.387-.47.663-.116 1.21-.116.957 0 1.758.253.82.253 1.406.8.606.547.938 1.407.332.86.332 2.05 0 .8-.157 1.74-.136.917-.35 1.893-.196.957-.45 1.914t-.47 1.836q-.194.88-.35 1.64-.137.743-.137 1.31 0 .742.332 1.21.35.47 1.27.47.644 0 1.132-.255.488-.254.88-.722.39-.47.702-1.114.332-.664.645-1.445h1.68z" style="-inkscape-font-specification:Lobster" font-family="Lobster"/><path d="M281.36 23.547q-.84 1.406-1.934 2.734-1.074 1.33-2.442 2.365-1.347 1.035-3.007 1.68-1.64.624-3.614.624-1.425 0-2.578-.352-1.152-.37-1.972-1.133-.82-.762-1.25-1.953-.45-1.21-.45-2.91 0-1.153.235-2.657.234-1.504.742-3.086.508-1.583 1.348-3.106.84-1.524 2.03-2.715 1.192-1.212 2.794-1.935 1.6-.742 3.652-.742 1.348 0 2.188.332.86.313 1.347.84.507.527.683 1.23.195.684.195 1.426 0 1.74-.762 3.244-.76 1.484-2.05 2.597-1.27 1.115-2.93 1.798-1.66.684-3.457.8-.04.45-.08.86-.02.39-.02.742 0 1.016.177 1.68.195.645.547 1.016.37.37.898.527.547.137 1.27.137 1.19 0 2.148-.313.977-.312 1.817-.86.84-.546 1.582-1.288.76-.743 1.522-1.583h1.367zm-10.92-2.832q1.134-.078 2.19-.645 1.054-.566 1.854-1.465.8-.918 1.27-2.07.488-1.172.488-2.422 0-.742-.215-1.19-.215-.45-.78-.45-.763 0-1.505.742-.722.722-1.367 1.894-.645 1.17-1.152 2.656-.49 1.464-.782 2.95z" style="-inkscape-font-specification:Lobster" font-family="Lobster"/><path d="M278.508 30.715l4.238-20h5.762l-.508 2.48q.527-.468 1.074-.918t1.133-.78q.606-.352 1.25-.567.645-.215 1.367-.215.684 0 1.192.254.527.253.88.663.35.41.526.957.176.547.176 1.133 0 .527-.176 1.054-.176.508-.547.918-.352.41-.898.684-.547.253-1.27.253-.566 0-.88-.195-.292-.196-.448-.49-.157-.292-.235-.624-.06-.35-.137-.644-.078-.293-.215-.49-.117-.194-.41-.194-.918 0-1.543.43-.625.41-1.367 1.094l-3.203 15.195h-5.762z" style="-inkscape-font-specification:Lobster" font-family="Lobster"/><path d="M311.828 23.547q-.84 1.406-1.933 2.734-1.075 1.33-2.442 2.365-1.348 1.035-3.008 1.68-1.64.624-3.613.624-1.426 0-2.578-.352-1.152-.37-1.973-1.133-.82-.762-1.25-1.953-.448-1.21-.448-2.91 0-1.153.234-2.657.235-1.523.743-3.105.526-1.582 1.346-3.106.84-1.523 2.032-2.714 1.21-1.192 2.792-1.915 1.583-.742 3.614-.742 1.328 0 2.187.332.86.313 1.368.84.508.508.704 1.172.195.664.195 1.328 0 .742-.176 1.29-.155.527-.448.898-.293.37-.684.547-.39.175-.82.175-.684 0-1.406-.468.488-1.29.488-2.364 0-.742-.273-1.19-.274-.45-.84-.45-.625 0-1.25.566-.625.565-1.21 1.503-.568.937-1.056 2.148-.487 1.212-.858 2.52-.352 1.31-.567 2.618-.195 1.29-.195 2.402 0 1.016.176 1.68.195.645.547 1.016.37.37.898.527.548.137 1.27.137 1.192 0 2.15-.313.976-.312 1.815-.86.84-.546 1.583-1.288.76-.743 1.523-1.583h1.368z" style="-inkscape-font-specification:Lobster" font-family="Lobster"/><path d="M323.06 25.03q-.314 1.74-.978 2.872-.664 1.133-1.582 1.817-.918.682-2.03.956-1.115.273-2.325.273-1.407 0-2.56-.352-1.132-.37-1.952-1.133-.8-.762-1.25-1.953-.45-1.21-.45-2.91 0-1.153.235-2.657.234-1.504.742-3.086.508-1.583 1.348-3.106.84-1.524 2.03-2.715 1.192-1.212 2.794-1.935 1.602-.742 3.652-.742 1.348 0 2.188.332.86.313 1.348.84.507.528.683 1.23.195.684.195 1.426 0 1.74-.76 3.244-.763 1.484-2.052 2.597-1.27 1.115-2.93 1.798-1.66.684-3.457.8-.04.333-.08.645-.018.293-.018.567 0 .957.195 1.6.195.646.527 1.037.332.37.782.527.45.156.976.156.586 0 1.21-.176.646-.175 1.25-.468.626-.293 1.212-.664.586-.39 1.055-.82zm-6.837-4.315q1.152-.04 2.207-.606 1.054-.587 1.855-1.485.82-.918 1.29-2.09.487-1.172.487-2.422 0-.742-.214-1.19-.215-.45-.782-.45-.76 0-1.504.76-.722.744-1.367 1.935-.625 1.19-1.152 2.656-.508 1.465-.82 2.89z" style="-inkscape-font-specification:Lobster" font-family="Lobster"/><path d="M337.63 30.715l5.43-25.45 5.917-.78-2.832 13.36q1.015-.08 1.914-.548.917-.47 1.698-1.192.78-.742 1.406-1.7.625-.956 1.055-2.01.448-1.075.682-2.188.235-1.133.235-2.207 0-1.113-.293-2.09-.274-.996-.88-1.738-.585-.762-1.542-1.192-.938-.43-2.246-.43-2.442 0-4.375.665-1.913.664-3.24 1.914-1.33 1.25-2.033 3.065-.703 1.797-.703 4.082 0 .762.078 1.25.098.47.196.762.097.273.175.43.098.155.098.272-1.034 0-1.835-.195-.8-.215-1.348-.664-.527-.45-.82-1.192-.273-.74-.273-1.835 0-1.328.566-2.617.586-1.29 1.582-2.44 1.016-1.153 2.363-2.13 1.368-.977 2.91-1.68 1.563-.722 3.243-1.113 1.7-.41 3.38-.41 2.46 0 4.237.664 1.777.643 2.93 1.737 1.17 1.094 1.718 2.52.547 1.406.547 2.95 0 1.913-.8 3.827-.782 1.914-2.286 3.457-1.484 1.525-3.633 2.482-2.127.957-4.823.957h-.215l-2.44 11.405h-5.743z" style="-inkscape-font-specification:Lobster" font-family="Lobster"/><path d="M355.305 30.715l4.238-20h5.762l-.508 2.48q.527-.468 1.074-.918.548-.45 1.134-.78.605-.352 1.25-.567.644-.215 1.367-.215.685 0 1.193.254.527.253.878.663.353.41.53.957.175.547.175 1.133 0 .527-.176 1.054-.177.508-.548.918-.352.41-.9.684-.545.253-1.268.253-.566 0-.88-.195-.292-.196-.448-.49-.156-.292-.235-.624-.057-.35-.135-.644-.078-.293-.215-.49-.117-.194-.41-.194-.918 0-1.543.43-.625.41-1.367 1.094l-3.204 15.195h-5.76z" style="-inkscape-font-specification:Lobster" font-family="Lobster"/><path d="M394.387 15.52q-1.172 1.23-3.028 2.09-1.856.86-4.063 1.23-.235 2.773-1.074 5-.82 2.226-2.09 3.79-1.27 1.56-2.91 2.4-1.64.84-3.477.84-1.387 0-2.578-.33-1.172-.352-2.03-1.095-.84-.76-1.31-1.953-.488-1.21-.488-2.93 0-1.17.254-2.656.234-1.504.76-3.086.548-1.582 1.388-3.086.86-1.523 2.07-2.714 1.23-1.192 2.833-1.915 1.6-.742 3.652-.742 5.137 0 5.137 6.387v.04q.097.038.175.038h.253q.703 0 1.504-.195.82-.215 1.64-.547.82-.332 1.602-.762.78-.45 1.425-.898l.352 1.094zm-10.41 3.437q-.625-.156-.86-.605-.215-.47-.215-1.075 0-.84.332-1.367.352-.547.918-.8-.04-.645-.136-1.075-.098-.45-.274-.722-.176-.293-.45-.41-.253-.118-.663-.118-.724 0-1.388.567-.664.546-1.27 1.464-.585.918-1.093 2.11-.49 1.172-.84 2.422-.353 1.25-.548 2.48-.195 1.21-.195 2.207 0 .996.098 1.62.117.626.35.997.255.352.646.49.39.135.958.135.722 0 1.445-.644.742-.645 1.367-1.758t1.094-2.637q.488-1.523.723-3.28z" style="-inkscape-font-specification:Lobster" font-family="Lobster"/><path d="M393.078 33.918q-.43 2.148-1.25 3.477-.8 1.328-1.797 2.07-.975.742-2.05.996-1.093.255-2.09.255-.917 0-1.718-.254-.82-.233-1.426-.722-.625-.468-.976-1.21-.372-.723-.372-1.7 0-1.25.606-2.207.586-.936 1.543-1.66.937-.722 2.11-1.23 1.17-.507 2.304-.86l4.278-20.155H398l-3.965 18.555q.918-.313 1.66-.743.743-.45 1.348-1.113.625-.684 1.113-1.62.508-.94.938-2.247h1.68q-.606 1.992-1.446 3.32-.82 1.328-1.777 2.188-.937.84-1.933 1.29-.996.448-1.933.682l-.606 2.89zm5.957-28.555q0 .664-.254 1.25-.253.567-.682.996-.43.41-1.016.663-.566.235-1.23.235-.665 0-1.25-.235-.567-.253-.997-.664-.43-.43-.683-.997-.235-.586-.235-1.25t.235-1.25q.254-.586.683-1.015.43-.43.997-.684.585-.254 1.25-.254.664 0 1.23.254.586.254 1.016.684.43.43.683 1.015.255.586.255 1.25zm-11.504 27.52q-.78.293-1.483.625-.723.35-1.25.762-.547.41-.86.898-.332.508-.332 1.113 0 .216.08.45.077.235.252.43.176.195.43.313.254.117.606.117.625 0 1.27-.88.644-.858 1.034-2.675l.254-1.152z" style="-inkscape-font-specification:Lobster" font-family="Lobster"/><path d="M415.89 23.547q-.84 1.406-1.933 2.734-1.074 1.33-2.44 2.365-1.35 1.035-3.01 1.68-1.64.624-3.612.624-1.426 0-2.58-.352-1.15-.37-1.97-1.133-.822-.762-1.25-1.953-.45-1.21-.45-2.91 0-1.153.234-2.657.233-1.504.74-3.086.51-1.583 1.35-3.106.84-1.524 2.03-2.715 1.19-1.212 2.793-1.935 1.602-.742 3.652-.742 1.348 0 2.188.332.86.313 1.347.84.508.527.684 1.23.195.684.195 1.426 0 1.74-.762 3.244-.762 1.484-2.05 2.597-1.27 1.115-2.93 1.798-1.66.684-3.458.8l-.078.86q-.02.39-.02.742 0 1.016.176 1.68.196.645.547 1.016.37.37.9.527.546.137 1.268.137 1.192 0 2.15-.313.975-.312 1.815-.86.84-.546 1.582-1.288.762-.743 1.523-1.583h1.368zm-10.917-2.832q1.132-.078 2.187-.645 1.055-.566 1.856-1.465.8-.918 1.27-2.07.487-1.172.487-2.422 0-.742-.214-1.19-.216-.45-.783-.45-.76 0-1.504.742-.722.722-1.367 1.894-.644 1.17-1.152 2.656-.488 1.464-.78 2.95z" style="-inkscape-font-specification:Lobster" font-family="Lobster"/><path d="M426.887 25.03q-.313 1.74-.977 2.872-.664 1.133-1.582 1.817-.918.682-2.05.956-1.114.273-2.325.273-1.387 0-2.54-.352-1.132-.37-1.952-1.133-.8-.762-1.25-1.953-.448-1.21-.448-2.91 0-1.153.234-2.657.234-1.523.742-3.105.528-1.582 1.348-3.106.84-1.523 2.03-2.714 1.193-1.192 2.775-1.915 1.602-.742 3.633-.742 1.31 0 2.168.313.86.312 1.37.84.506.527.702 1.19.195.665.195 1.368 0 .762-.176 1.31-.175.546-.467.897-.293.333-.684.51-.372.155-.782.155-.743 0-1.407-.468.236-.625.353-1.21.137-.587.137-1.154 0-.722-.274-1.172-.254-.467-.82-.467-.645 0-1.27.586-.625.565-1.21 1.502-.567.938-1.055 2.15-.487 1.21-.86 2.48-.35 1.27-.565 2.5-.195 1.23-.195 2.226 0 .937.175 1.582.176.645.49 1.035.33.37.76.547.45.156.977.156.586 0 1.23-.195.645-.195 1.29-.508.644-.332 1.23-.722.586-.39 1.055-.782z" style="-inkscape-font-specification:Lobster" font-family="Lobster"/><path d="M435.56 2.63v6.21h7.4v2.793h-7.4v11.875q0 2.676.72 3.437.743.762 2.99.762h3.69v3.008h-3.69q-4.16 0-5.743-1.543-1.582-1.563-1.582-5.664V11.633h-2.636V8.84h2.635V2.63h3.614z"/></g></g></svg>